<mxfile host="app.diagrams.net" modified="2022-03-15T10:58:36.403Z" agent="5.0 (Windows NT 10.0; Win64; x64) AppleWebKit/537.36 (KHTML, like Gecko) Chrome/99.0.4844.51 Safari/537.36" etag="LWfeznJ5GVd2DqCswFi3" version="17.1.2" type="github">
  <diagram id="G9_Eo9vPzLTUd0QRf7Dt" name="Page-1">
    <mxGraphModel dx="1422" dy="762" grid="0" gridSize="10" guides="1" tooltips="1" connect="1" arrows="1" fold="1" page="1" pageScale="1" pageWidth="850" pageHeight="1100" math="0" shadow="0">
      <root>
        <mxCell id="0" />
        <mxCell id="1" parent="0" />
        <mxCell id="H9gFOr3YN2ZNxRey7TpE-41" style="edgeStyle=orthogonalEdgeStyle;rounded=0;orthogonalLoop=1;jettySize=auto;html=1;entryX=0.5;entryY=0;entryDx=0;entryDy=0;" edge="1" parent="1" source="H9gFOr3YN2ZNxRey7TpE-2" target="H9gFOr3YN2ZNxRey7TpE-24">
          <mxGeometry relative="1" as="geometry">
            <mxPoint x="115" y="160" as="targetPoint" />
          </mxGeometry>
        </mxCell>
        <mxCell id="H9gFOr3YN2ZNxRey7TpE-2" value="End User" style="shape=umlActor;verticalLabelPosition=bottom;verticalAlign=top;html=1;outlineConnect=0;" vertex="1" parent="1">
          <mxGeometry x="197.5" y="20" width="30" height="60" as="geometry" />
        </mxCell>
        <mxCell id="H9gFOr3YN2ZNxRey7TpE-24" value="Stack" style="rounded=1;whiteSpace=wrap;html=1;align=center;labelPosition=center;verticalLabelPosition=bottom;verticalAlign=top;" vertex="1" parent="1">
          <mxGeometry x="10" y="160" width="405" height="235" as="geometry" />
        </mxCell>
        <mxCell id="H9gFOr3YN2ZNxRey7TpE-25" value="Azure Kubernetes Service&#xa;Docker Container Orchestration" style="shape=image;verticalLabelPosition=bottom;labelBackgroundColor=default;verticalAlign=top;aspect=fixed;imageAspect=0;image=https://boxboat.com/2019/10/01/quick-intro-to-aks/featured.svg;" vertex="1" parent="1">
          <mxGeometry x="81" y="215" width="110" height="110" as="geometry" />
        </mxCell>
        <mxCell id="H9gFOr3YN2ZNxRey7TpE-26" value="Docker&#xa;Web App" style="shape=image;verticalLabelPosition=bottom;labelBackgroundColor=default;verticalAlign=top;aspect=fixed;imageAspect=0;image=https://www.docker.com/sites/default/files/social/docker_facebook_share.png;" vertex="1" parent="1">
          <mxGeometry x="244.11" y="232" width="105.37" height="90" as="geometry" />
        </mxCell>
        <mxCell id="H9gFOr3YN2ZNxRey7TpE-28" value="VNET1" style="shape=image;verticalLabelPosition=bottom;labelBackgroundColor=default;verticalAlign=top;aspect=fixed;imageAspect=0;image=data:image/png,iVBORw0KGgoAAAANSUhEUgAAAIAAAABRCAYAAAAaXK5BAAAFtElEQVR4nO2dQU8bRxiG39TIrg2GNIBVKBapktiWkEJFhdSeGpFjjaCHVs0lbQ9B5FQhVT30EAo/gKan0uZQVLXi0gMolnKKZaSiVkppcSQk24KECAISNm1gA6mRET1UWzC7a5tkZudbzzzHnbX2k95HM7O7M+tTBwcHB1BIy0uiC1CIRQkgOUoAyVECSI4SQHKUAJKjBJAcJYDkKAEkRwkgOUoAyVECSE6N6AJOQiy1AW1vH9FwM/weWqVr+QJi6Sz8bheikYDocirmlBPeBmr5AganF5DJ7QIAQk0+/PRBp+CqDtHyBfT9+Ae0/D4AIBppxnDPecFVVQb5IeB4+ACQye0i8eAvgVUVM3l//f/wASCWymIkviiwosohLYBZ+Dp+j0tAReb43cbhKJbKYnBqAVq+IKCiyiErQKnwo+FmvPlag4CqzLnS2YJQo89wfG5tG4PTtCUgKUC58Icv0xtfx/s7TCXI5HZJS0BuEpjO7eDzO2msaXlDG9XwdbR8AYNTC8hsGsUNNfkw3tdB7u6FlADp3A6uTy8UTah0qIev4zQJyAwB1RA+APg9NY4aDkgIUC3h6+gSvPP6K4Y2ahIIHwKqLfzjjNxdRCydNRynMhwI7QGqPXwAGL58HtFws+E4lZ5AWA8gQ/hHseoJ/B4XvunrQLipVkBVgnoA2cIHrHsCLb+P69MLSOd2BFQlQIC5x1vSha9DUQJbh4DbqQ2MxpdM26o9/KNQGg5s6wFU+IdQ6glsEUCFb4SKBNwFUOFbQ0ECrgKo8MsjWgJuAjgh/Iw2g4w2I7qMshLMPd7idm0udwGUw89oCcQ3vkZya6roeGdDP3oCnyLkvySoMuu7AwC40XMOvRwWmzIXgHL4v25O4IdHn5Q852r793i78WObKjJitwRMBaAc/vyTKXz74L2Kzv0i8ieCvjc4V2TNd/dWcOveqmkbawmYzQEohw8AP68OcTmXBwPdQdzoOWfaNhpfwu3UBrNrMREgub5tGX5Xa73w8Fd257G5t1zx+ZmnCewWnnCsqDy9kQA+vPiqadtofAlr2/8wuQ4TAeIl1ugPdLexuMQLsfps3pbfsGagO2jZZjVPOCncHwSZvfSxG6/rtOgSnotSawVYrSNgIsC7JvewOrd+XxG+6CHoPfmEru05fsOar2YfmR6vc7tw5WILk2swESDUVGs5aaGw8qXRcxadDX0Vn//WmY/gqxHba4zEF5F4aBxa69wujPd3oLX+ZSbXYTYE9EYCuGYx3lOQ4Gr7BLyu8ruJvK4GRFu+tKEia0bii4iljGO8Hj7L18VM5wAD3UHTR5rAfxKMzVY+E2eNr+Y0hi4k0Oa13lXsdTVg6EICjZ6zNlZWjJ3hA5weBX92J4WZh3+btlHYOn134yZ+25zA6rMkAOCMux2hukt4v+2m0K7f7vABTgKU2h0D0JCAGiLCBzjdBpbaHQM4a/+8HYgKH+D4HEBJUBkiwwc4PwjSJehqrTdtl10C0eEDNq4KLvWaU8Y5AYXwARtXBVutegHk6wmohA/YvDFESUArfEDAziCZJaAWPiBob6CMElAMHxC4PVwmCaiGDxD4QMRkct3yHUE13B1QDh8gIABQZj2hgyWgHj5A5BtBvZGA5XqCWCqLyeS6zRW9OE4IHyAiAFBagrHZZaYrYXnjlPABQgIApSVgvRyaF04KHyD4fwH6pgezOYF+jMcWKRZYhR9q9GG8X/wXwcygVxEOAx77ZRlP94pXFVOVwInhA8SGgKP0RgIY7+9Andv4WfjR+BLXHbMnZTK57sjwAcICAEC4qdZSgsn7dO4MzFbvOiF8gLgAgLUELX6PoIqMHP/zCqeEDzhAAOBQAj30rtb6ktum7OZad7CoNqeEDxB5EqgQhyN6AAU/lACSowSQHCWA5CgBJEcJIDlKAMlRAkiOEkBylACSowSQHCWA5CgBJOdfWgZQ3n/PFgwAAAAASUVORK5CYII=;" vertex="1" parent="1">
          <mxGeometry x="180.89999999999995" y="171" width="63.21" height="40" as="geometry" />
        </mxCell>
        <mxCell id="H9gFOr3YN2ZNxRey7TpE-29" value="Supporting Services" style="rounded=1;whiteSpace=wrap;html=1;labelPosition=center;verticalLabelPosition=top;align=center;verticalAlign=bottom;" vertex="1" parent="1">
          <mxGeometry x="430" y="160" width="240" height="234" as="geometry" />
        </mxCell>
        <mxCell id="H9gFOr3YN2ZNxRey7TpE-31" value="Azure Pipelines&#xa;App Deployment" style="shape=image;verticalLabelPosition=bottom;labelBackgroundColor=default;verticalAlign=top;aspect=fixed;imageAspect=0;image=data:image/png,iVBORw0KGgoAAAANSUhEUgAAAMAAAACzCAYAAADfahNoAAAgAElEQVR4nO2deZAk2V3fP7+XmXV393RP99y7s8fM7L3aW0KyLhCWQIsQISFuK7gc4gxhsI0xJgJsy/xBGBscEKHACtsBFibCFsKLZQ6BLC1C59670uzuzN7X7PRRd1VW5vv5j8yqrr7PurryE1HTPdVZma8y3/e933vv9/s9UVUlIWFMMYMuQELCIEkEkDDWJAJIGGsSASSMNYkAEsaaRAAJY00igISxJhFAwliTCCBhrEkEkDDWJAJIGGsSASSMNYkAEsaaRAAJY00igFFGFQ6gM7sCuuKL9e5Luj07c8L+E9cDC1irBIHFWsV2HSIcDE04jpByDcYI0sPrJAIYIdqtYitUFqshL1+qUaz4NANFNar8KCCjKwIFPEeYO5TmzKkCOU8Q0zsJSBIRNvwoEISWYjXkkQtV/urrSzz+TItyXQhDRYh6he5qor1sNnuOkHKVc6ccfuzeI1x3IsNEzu1JT5AIYMixqhSrIU88V+cvvlrkwSd9Lpeg7jvYuEocFLOnGyOK64ScOQ4/9t7DfMsNBQpZB2l3cftEYgINKxq14uW65f7HS/zn//06z8+nCK0LmI45JHFdGIUGvy3S7ZTVIvih4Zsvhnzyr+e58mia6044y194n0hmgYYUBUKrfOYrl/n9T13mucsZgtBBkajyCx1bfyReXf/ZzvHL98Hhmy9Y/uz++Z70ckkPMKTUmiFfPV/ij/6qzKVyhlDZ99avr+yy6Ao0Ao/zz/nUfEvOE8w+DoqTHmAI8QPL66WAP/6bRV4ve/gBjIaR0wuU0Aq1Bvh+NNu1nyQ9wJChCpV6yGe+vMCXvhFixWF8K3+Mxmt+CrrP9yLpAYYIVQhV+cr5Mv/zc0tgMiSPKEJ6NM+V3N0hwqry0utNPvOlEsVGdt+7+4PB/t6URABDQmiVWtNy35cWePhiSLNlEgH0gUQAA0U7/zZblsefq/GpL5RZrO7/fPcoo0RrIsk06EFDBSRybLu0FPCJP79Exc8t/z3RQIdedYaJAAaMKiyUA/7ia0s8clFphrrvMx0JG5MIYIBYIAgsD1+s8unPF6m1Mkmr32cSAQwQtZb5SsB9f1/kpSUvsfsHQDIIHhCq0AzhT/9ugYeeDlCcQRdpaEkCYg4g1UbII8/UuO/+MpVGmsT22YhlZ+9e3KGkBxgArUC5tNTik599ncvVDK1wGCv/cpnag/LVnpp9LUWPLpz0AH1GLTR8y/2PlfniYwGhuAOd9Wlf2SqoxlEGqiCCQRARxEDbA/ugrc0lAugjCliUrz5V4U/+pkhIBmvjKtU1AG4H6cmqQXF38N7qv22/EO3FN8UIOCYk6ykTGYdMxiOVchADYag0miG1eotKU/FbBouJxdEfw6EfwYqJAPpIECovL/h8+v4lXiu6WO1y8VrnYW9WAbZbOdpC0dil0jHgOTCZF2anXGYm8xyacMlnTJyFIT5ahcBCsxlSbihLpRaXiz7zpYBqw2KtYOPAY+lepd1FpV1PzKrLq+RJWpQRJlrWEqwqDd/y119f4tGLIfXA7ZmH44rrtyukKJ4LhZTlmlNZrj01wUQWPEejCqyrLfz495zDEQQ96lFv5ZgvhjzxbJGXL4e0rCEI2XP93FzM2lO7KxFAj2lntfED5cKrTf7HZxdZqGT6avUbAUdCzl6R4carCsxMuIgNOwOAzeufdkIws55y8rBwbG6W519t8NjTZV6ZD1EZ3SncRAB9IHJz9vnEfa+yUMsQaj9s6GjI6hjIpgLuvmGaU3MuaQ8cLJidNKzx8FeiQbFLyKlZl0P5aR67UOapF+sE6qIaj5ZHiEQAPUaBUi3kC4+V+fpTllbYp1uu4DgwXVBuPzvN1cfTiFhEdFXawW2ebNXvKRem8nDXDVO4Llx4yafeVOz+Zi3pOck6QA9RotmUx5+tc98XS5TqLmHYnxZSDKTdFredneCa4x5Gwniiaf9qZ9S7WO66foqrj6dwJBi5udJEAD0kjFMY/vHfzHPxNQFjdj99uQMEcAi456ZprjyWitKnSJxHZb+vJYrnKLedm+KqE2lE7UhlpUsE0CNUod603PfFBR5/TqOcPv1oGVXxPDh3ZYbTR1O4RhHReMbJsv/NsyCiZFOWm64pMDMBbg9zee43iQB6RMO3PHPJ51OfL1KsOfFkaI8VoGAM5LyQG64u4BlLv+qiY2Aqbzh3ZQ5j7MgMAxIB9ABrlVcWff7o/77GC/PtvD4gve4BBFzHcvpEjtlDDo7X38ebTglnrsgzlY0G26NAIoD9oiuvX923fPGxCl94LIjcB9qH9LhZVCxTeYczV2QRa5E+R9UblIxnOXMqT8br66V3TSKAfUaBx56t8X/+vkS15WFX1MHeKkBQ5qZTTOYcWLFtRr+IzLyTR7PkMiuStQ+gLNsjEcA+0gqVhWrAH/7la1x4FbSP0yEi4BqYm3LxBrYwGy2WTeYdJvNtV4/hrfwwRAthtpNCOGLkcuIoVOshf/GVeR55Rqi1HJYffh+mPgXSnjCZczEMajVKEIGUq0zkHYRGHOk2vEPioRBAlBQq5JlXKjzwVJVnX67SatkhbztWI4R4PHxRqDT7bwArkE0b0qlBrkS1IxuEiZyDYzTyGN2H4vSqLxm4AJoty7OvVPmzL7zI3z6wyEuXoiX1sLdOgPuOYzwy+UMYb2IgvZeqkk0bPHcIrFpVsmnBdaAV7PVksaAPYkSYKswXm3z8T5/mU5+7TLXlxsmi9uZUtXcDoP3pTcrQtu/jH9l8nrSTx1oZWI+fcsGIYFSxAylDfOdFSDmCawTZY93tdX82MAGoRt3jf/3zi9x3/2WqrRRq23F3e//KezvD1p9u78iogOOlSWfy0buyifwUlucddOXCQLeHqOyiw7fRIljk7DYolhsOidsx3WMN1h6PowYmgFZgeeFSjb/80utUmm4UFDG8Y6U1LG9T5DJROITnpXfo57NJzdhNFyYQ2Di2dwjuY2iV0ALa3tZuo++6eWFFZBfeq9tnIAJQlCC0vHSpzGLF0gq2aDmHFGMMqXSOVDqLtB3sO5v1rsdG32/v31sEmk0lDNsxaIMiunKzpQRh+4Z0/1x77Kbfv8fd2UAEIApqlWojJBw1B/IYQXDEI5+foLNjHcQPbKPWfdX31I0qwM5nTowI9UZIq6WImj74XazHcvqUWkMJw67vt25xBv/cB2MCSTRQGqS1ulfEGDL5Aq63UVKr7TzczY7ZWeVQhVpDqDYVlT443q1fimi6Uh3K1ZDQOnFrt42WfkAMwZzZCCJCOpMjkyswLA/VAi0LS5UWqoOp/tAWokblIBoFD8cdWp9EADtEEBzXJZubwIjLsAhAAavCpcUWDb/brOy3FIT5UkC5PghfpJ2TCGAHRON0IZ8/hOOm2NYgrk9IPMU6v9TilYUWIIj2JgpsM6waLr5Uod7s/7V3QyKAnWCEVDpHJlPADGkqkEoTzj9bJrSC7XFOndWEobBQDnnhtWaUL2gEGIwARmjsG7Ws0Zy/cVLkClNEt204WzdVw+Wi5ZmX69E0ZB+K2V67rPvKY08XaYZOXz1h98LgegBd8WPoEXHI5CbwvExfAtt3i6rghw6PXaxQ9Z3et8TxA2wF8PLlFs+/1sLa4W0gVpOYQFug8QJdOp0jm833dYmpk615s7+v4zYSBMprC8qD55eoNXvtWq5YhFcXAx5+ukTdd9AuR6R+JLjdC4NzhhuNBgIQHDdFLj+JEXfDCqkauwKv6h1WzMXEFbr7PaG93L/q752DNE5psjF29bUVEIcLL7fwvAp3nJ0gm9Ie7MAkBFa4XFa++kSRxarprO8IspzgdpWQN+xBV4ll+V4dMFeI7so/7DoQccjlpnBMqlNJN2K9v693tK76fXUrqWsO2roCrLm2QiswXHjRx4Zlbrm2wEQ2clHevHTbuJDEplYAryy2eOjJEosVIQi6D9vkPu2gV+i1n8DA4wFg+YEPm2ktYkilMmQzha6V6yEr5KYItaZw/vkWtWaRu26YZjKjeA57SvEfBtCywnOv+Tz4zUWKdUNoezXt2VsTaigE0Ga9DSBWtxbd72/Ule7V7mybE47jkp+YikyQYVPnNmjfBj8ULrwUslB8nRuvznHdlXlyaYNqsOl9XD5PdCIxhlAN81XLo08v8tyrPn7g9if8vke3f+ACUFXaW/KseX+j47c4Zh9KBWJIZwsYt+3rM6iV1b0TCdpQrsMDT9Z58vka15zIcvpEjomci+dG7somDjxcduWLxiahOjQDy+uLLS68WOPlywHNliEIV2e96C29uNTABbDMMJkX0axPOpuL3JwPCKEF6xv8lqVyoc4zr7aYnnSYnnApZBzSnsFxorbI2ijLRaMZUq4FzJctS6WAWkMJQjOCzcD6DJEAhgMRwRiPXP4QjhmR7E47QAGsodESGkvK5aUWRnyMifYSME6U61NttEVSGEaZ7jRe/BuUn2mvSAQA8UONwxDFkCtMx74+3a1//x57eyJx+br72zN2L9JGJo5grSFQIGyXgU7I5+pZq8Gyv/ciEQDL9q6I4HlZ0pncQFd7FcEYIeUps9MTFCtNKjV/xQLTflwloj2pwIraPfiKvhbTg3wDgxVAb+Odd0DUyjpuikJhCmMGu5RvTJRc6thsHtcVHCeDqKVSD1B7sEyQrRFELJlUlHx3v9ulAY7wupZKhuCJigiZTAE3lWGwlV9IeXD8aIFs2sVIlO5kdiZPPuv0a4veocIxITOHHDKe7Pv3H4LbOQS1XyGdypPJFhj0LUm5lqOzeTxHCMLIIBcBxyhzh/Pksi492uxlKBGBQjrkxqvSOAfOBBoCRAQTL3gZM7jbYYyQci0njk7gOu2ufvlxi4AjcPhQFiN1KrUWdhfB86OGWsuJwy53X1foyfmHoAcYNEI2N4lxvYGt9hoDnms5NpvHiZ/Iemt8AnguzExlyWfdngwKh4ko4W/IHddlOD2X7sk1xlYAEseKuF6abH4C6btxrQg2yqbsKcfnJshmvC1nn4xEIpibyZHLmCjBBgezI3CMcOJQi7fdmmeq4PRkZm5sBYCA46aZmJyJK3+/21IBMZ3ZnpQHod2eV000JoC5wwVyObcjgoOCEI15Mk6VD3/nNDeezmF61DuP7xhAHDLZAo67UV6f3hLZ/MqxuQKeZ3bcjItEG2FPFjI0/Sq2dXD6AMexzORbfPCdk7zzthnyGadnT2isBNBZ8RVwvSzpTGFL02dFaGtXiG0nAVz73NuofxqXwRFwHeXoXIGUtzMbRlRQUVQjF4V6w4+y660aD2+3PDv9Dttl9bk3op1pA422c814wqGcz/e8Pc/3v2OOqZyD6/SugRorASyv+BoKk1MY1+08qBWJmje635tMumz4mVVx6SrRPr7HZnNk0g7W2u23/HHghChYhIVig1LVJ7Cb1LV1ytz5rtusV6u/W/fnV4iuU8btn7vjbGHA0OCG0w4ffvcc33LDJLmU6fm8xFgJACxiXPL5Q7huKuoRZG1rteahrvP+Vn9b7xhHIrPn5JECrkNU+XeCREPnIICFUp1ixcduEKW82t+nuzwbiXXD99cpx3b+th1UFNcocxMNPvDOQ9z7phlmcvGiVx8s08ELoK8byRlcL0U6m48ivPpx6Tg3Ztu94ehsHsfZfYBNK4RipUmpOph1gP28Za5RCpmA2691eO+bj3HX2RwzBQ/H6V/qgQEJYLmf3Crgez8xxiWfm8Jx3S5vy7UPdRMLaEM2/psgRvAc5fiRAp4bmWDbjeVpmxUWCFVZLNYpVf04BHEH59gDu/veG2NQMinIew2+6y1ZPvi2Ixyf8Ui7pu/zEYMRgEoUBEYcDYasFxS2v4iQyU3ipXNx5e/PnRZddmzLeA5BVwjVpuGI7eBzop/WwkKxHrX8g9n/aB+InQ5pcse1Lj/4rmO86foCKTfyxB3EXO5gNsgQJZVyuPW6OW6+5lm+/A2farNHSxIKGPC8TMfNWXt8p9ve/EYMKddy8tgkjokismBtWOeaDr8dAhD747esslSsU6z60a6LI0UnjQQpV5mbqPGhb5vjXbcVmJ1ySXlmoItRogPIXNROBWItPPjUIr/zySf5wiM16r6w1X4Z2wni7r6QADguU9OzuKlcn1Z8FSNC2oWjszlSnkHYodlD1CL6oaVYaVIs++xkwmhYEBRHlEN5y82n4X1vOcTd100wmXfweji9uV0Gs0MMgAiOgTecmeZnPnSOhaWHefRZpRFE+1xtlBVio/c65xZZmV3CuGSzk3hepm++PiZe4T1xZIKUZ6KQwh3X3KiBWCo1dmzzDwUarVZ7rlDwqnzv2w/xXd8yzZVz0V5qw5JkYyA9ANDdM9LwQ86/UOVf/qeHePTZgLrfGRrsESGVyjE1fQRpR3v3gYynHDtcIJt2sHZ3O+GECovFBkvVZmTzD1POgC0QIi/OfDrgtjOGH/3OWW4+nSOXElxnuLxvBieALqwq9UbIYxdL/LtPPMEDF5rUm7Lt1cSNcJw0hanDpDO5nld+UcUYg+daThydJJrQaJs9W9/i9mKwEmVjWCo3KFdb0a6PA39C20dEcSXk9GzA+942zTtumeD4jEsmZXDM8Cl4KAQAkVnTCpQvPjbPv/+j8zzwdBO/JbvPO6NCrnCI/OQ0Ynqfy98IeA4cm8uT9ky0yLYT3574p281tvmbce8xKigpR5nMhtx0hfC93zrDbdfmmcq70f7Fgy7eBgyFADqTHqo0W8qXn5jn1z/+KE++DH6LHYugPdl2aOYIqWy8gXUPEYnCFk8cmSCdcrDhzpvt9prw/FKdUq1FGEYLaENbc7owAq6EHJ30ef9bJ3jfWw5zZMrFdQwqw+1yPBQC6EY12j710Yslfvl3H+LCK9D0t+9cFZ0kGvweOnwML51tv7XfyUWIiiSk3cixLeN1bwyxDbOn7dgGBFZZKkctv+6w9+g7cdlEFEFJOU3efJPDD337EW45nSPjmWg1dwSGLkMnAIi8HGuNkK98Y4Hf+sPzPHKxRbO108Gkw9TMHJlMARXBwr4vfxkDKYdohdeJk0btYPTe3hvcD5WlSpNypUk4MmaPkk2FXDEd8L63HuKtt0xwYtojl3GGZoZnOwylACASgd+yfPbrl/it/3aeJ1+2+OHWlkV3pol8YYr8xAziuCsEsKO1hA2IbH6NbX4nas07w9htdvoauzeUmxQrTWzYJ/+kzYrUToS7wf0RFCOWQ3nLrVcJ3/dth7nj2gLZlEQ+TiPG0AoAotmhph/yd4/O869+/xGeu+ziB7qldaHxv46TpjA5QzpX6PjirxbAzr++YATSHhybzZNNu9ECVec8W/UA0XyPEiVhW1ysU6z5hLbbzXj9sq1e4+g1nXtEVDYRMBIwl2/wQ++e4R/edYhTMykYonn9nTLUAlBArVKuBzzw5BK//B8f5MVFB7+1XTPBRMmuDs3gehnMfqwCxyu8J2PHtk2DBNb7OMvuDYvFBsXK8Nv8BoMSMJUNuP1a+Mn3HeeaIylyGQfPHeYh7tYMvQAEJbRQb4Z87sHX+J1PPs3jz4U0gy0/DkQu0I6bojA5jetlkD1kfYtcmoXjszlSnkP3NkA7OWd7nr9YGX73BiOKKy3OnoDveNMkb3/DJFfMpnCdKH3jiDb8HQYfD7ApUdUwRshlHN55xxF83/Jv/+BxXi56BHYbLadajPrkzSJTE9NUW1lq/s4fmxHwjHJ8Nh/79uy81VYg0Mi9YbHSxOpwVyDXUfKez61Xw0+9/wTXHEszmXPi2Z3hLvt2GWoBtG+xENmjubTLe950nGzG4Z//ziNcLqdpBcQ7Oa6PEcinm/ziD1/DkZkcf/zXi3z5vBc159vEomRciWz+jEsYdLfam1eD7klRq7BYrFGq+ujQVn7tVO7JTJMPvr3Aj777CIWMg2OWbf3hLPvOGSEDTuNESQ5vunGW3/y5W5nNN/HczSq/cmza8i8+fJb3vvEYb7p+il/80AnuOuOTS0fn3AoxQtYVTh6dJJ1ysbvcdzdo+/OX/aH254+yRFsa9TKmNc8d57JMZldW/oPECAkg8uN3HGEi7/L2247wKz9xA2dOOHjO2pkXwXJ8WvmR957kvW8+zlTeZSrvcdWxND/7PUe5+QqfQtpuOK+qaDTb40SpS1wjsAOX5uXzRDZ/sdygWG1hdXgHvGotQatJpbxAubSAaCuy9Ud4lmcrRkgAy1XcdQzZjMO9bz7BRz5wmpmcH8/IRLapa4SprOUf3XuKH/z20xyZzuA6BgEKWZc7z03y0Q8e5cYrQvJpQNcGp4sRPFc5MTdBNh15kq6uuLLBK451QxVaCgvlBovlJmGoe3bw6wVqLWoVv1mjVJynVimjYYjtTCgPqWL3gZESQDciQi7jcu9bTvIbH7mZ6WwT1whGIeMG/Oi9J/m+b7uSo9PZFYs6AriOcPNVBX76u+e46VQzijfsesiqStrA0cMFUmmDVQW1dC91wbL35tpXdISFKIa33OxEgw0dqtjQUl6ap7y4gPV9jNJJHXnQGV0BaNfs0J1H+LWfvIFjh1ocnQn58Hed5MPvvZq5qfSGq5OeCzddleeXfuAkb7wu6IwJjBGyqdjmTzuE8bqbSjTYjn5u/QqsMr9Ui7w6O7lXhgu1AY1ameLCJfxGBW3vj0S7QTj4EhjqWaBNiZ+N6xgm8ym+483HKVWavL5Q4wfec5pjM5ktgy/yWYerj2X4yHcf5fc+dYnzr7j4ARw9nMdxATGdOZHVm2SvV5/bRwShUio3KVe6YngHXpfakcoKVgkCn0atgt+oYcOQtd+oaxW4zyXtJ6MrgC5cR5jMevzQe64BVXIZdxuDNonHBA73XD+J8wHh4/ct8GppAi8Vt/y6WfKUtedDo9DHpWKdUsUnHLRjz2rigYnfqFGpLGGDYN3xT2ckM4S91n4zsibQakQgm3bIprdT+Vd9FuHEbIZ7bpxhMhc54qFR+vLt2y6KVWWhWItWeIfI7FGiMVMQNCiX5ikuXsa2WhtU/vHiQPQAbcxO/J3jvr0VKAvVgL99qMKLlwxzkym0FNBoEc/Xb3TC2ERo+/OHSrHUoBSnK+w6ZEDE5k6URZdavUK9XiYMgljYCXDABLBT/EBZqoR8/tEKT74o+C2D58LhCY/LJZ/mJiGZ7TGBKATWUio3KcX+/EOBKqqWMPBp1qrUaxVUd9KjjQdjK4BQlcVKwP97uMQDTwJ4aBTGTjYFs5MeC+UWNZ+uKK/VRAPLYrFBqdoiDLcOYdyPWITuq8Oyy0jn3Xjs4tcrVKslgpZ/QDx39p+xFIC1MF8O+NzDFR696ESzPWriUV9UqTKeMDPpYksBjSasl00usMpiqcZSpdklkmXvn41WfNc44O62bmrnStHPKNiBMGhRKy/iN+qszIPXDgtKaDNeAtDILWGxEvDZBys8+SK0wtg9elXSfBEl7cLsZIr5ok8jNoeEqBq1XZpL5Wbs0hy3xhpdaEeGxi6tknZsQft/GoY061UatQphECVX6lreI6n8axkfAcTjwUoj5AuPlHjiOcEP3DUte/d8vwikXWVmyuNyMY5LtkJgY9+eUoPQsioXf/9sbG1/Lyw2CKlVS/iNGmrDVUZRUvU3YmwEoEQt9+ViwKPP+Pg2T4i0g4RXHKjSZafH2/YcnnJZKAdUG8JSqc5StUkwBO4CiqVRr1CpFNEgWDF33/kOcU/QHVK5aXhlewJpDAbMA1wH0HimQrGw7qvjc6PtOrr7ByJE06QnZ1O8+54Jsq6PMRZVRbt8fLRTZ6KyoZFnaT4VcvWRgNl8iWq9HuXtgf4GseuypaYKYcuntDhPpbSExrvKt10xrECIEqIr/r98T1caR0p0jJX4/st49BwD2yBDVfEDpdIIt+0oNpl1SXlR67XjBxOb+WlPuPXqHEEIX3zcZ6FiCDapxQI4YrnyiOWe6/O0gjS//+nXefx5qDTbR/QJAbWCDQMazRrNWoUg8OPpzY3pbja2uz6nq34eVAZmAoVWmS82+er5Mn6wDTcDG3DXjdOcmk3jOLusdgJGhFwa7jibBYXPPlCjGmZYb7suAVxXmS0EvOvOCa6c8zDAz39A+O0/eZUnXvKoNfvXTqpabBhSrRRpNGvRSu4Ogws2O1o2+P0g9wQDEoBgVWi0YL6Sotp01s5Tt00R4lAYdWj4DmpB9pjqU0TIpQx3nsvhePDnX6rR1Gxcl2zs/CYYCZnLBbz/H0xyataL8tkL3H5tgZ/9niP83qcv8ZUnDWKcaDC9T81lZ3anvb8YYLE0alWq1SJh0OprhTyolR+GyRdobVRJ5+3l32XNe7u5TPtcaU+45XSWe9+Yp+D6OBJVfgFSJuTUTMj73zrBiRm3k+pPAMcIt1xd4Bc/dJx7zgbkUu3Kv/pL7O7V2cJJTTR122qwtHiJSnkRGwZ7/v4bvcaRoRDAoG6+MUIubbj1mizvvD3N4XyIYxTHhJw8HPKtd+Q5OeeR8qJkWN3kMw5nTmT4mfcf5aZTPoVMd6jM3lFVwrBFvV6mVFzAb9ZRu43UeAk7YigEMBDi6RTHCLmUcPe5HG+5JcVEusmRqRbvuafA2ZMpUq5Zd9AtEoVX3nXdFB/90FFuuiIgm2ovk+2WOJ5MLWHoUy4vUikvEPhNxGp339Dz17gwNusAa1mu1CJCJiXcdm2WqaxSyHucnPHw4jjizXCdyBz6qe9Wfvd/vcoDF9x469ddVCOJo7SqVerVMqFtdVaWgb7OuUaXks545KCKYnx7gFUYA5mU4bor85w6nN5W5W+Tcg03X5Xnn33/Se45q+RTsGNzyFqCZoPSwmXqlWJk6+9x7SNhaxIBAO01T8cIKVeizax3mEGxkHU5eTjFW27OYoPq9pPYqmKDyNYvL83TataxNmB5eWowjEtQ/IiZQL2qEN02/jYfe5fvnCo0WiGXSi0+c//zFIsgKYObzq46dxyVK5GLtVElDJtUSkv4zXrkpiqrLzAYZDSa9KUAAAXhSURBVAjK0A8GJoCdti7R3PzwoRot6j30VJGPfeIJvvaNJoE6iLtIYQq8VLar7LLswGZDqrUStWqRTobcIWtyx2FAPAQ9QOyotX5SgugIbYeeDA8ajw6DUHno6SL/4ZNP8cjFFr6NVukk8KkszZPNT5HKZDHGiSu/pdXyqdfKtPwmai2STG0OjMELIDZ1V3seymoFDJlvYnsvs6dfrPFv/uBxHrrQpFyDZQfMKDClWl7Eb9RwUx4g2KCF32pGqUjUDpWox5GBCUDX/G9lVRjibQs6W7pefLnOr3/8Ub5+vkG9JV2hju3vo6gNaTZqNBvtXmz/QiJ7zWCH4f1hsD3AKN7djs2/xMc+8QRf/aaPH5pYsCv8LiOfezSKL6DblXl1SOTqqN747VX/X/GRtcVqn3zr77DB9VZ8djQ0umcGbwKNGIpirfL5r73A0y/UaQZOJ55gBcKK9zcf465v3m1WlbvHTet+ttufavUBujaWoePK1PWZTvDMJuUYdZJ1gF1gjPCOu6/gzEmXjBci6+UMZW3F3DCXqC4fv5NXO4BlvXNueN32e6teq1l9/EElEcBO0Ghw7hjh9nPT/MZP386d59xof4JVLf4mp1hb+XbZxG4mjo2OZQORjCuJAHZCPDEuIjgGzpzM85s/dye3X2sopHcfQ9XrVlY3+D0hEcCuae9PcOZkgV//yBt42605JjO65Q3dT+/L7Xpzjqun53ZIBLAHRATPNdx+bpqPfv85bjktZFzFjENa5QNCIoA17KzyioBrhNvOHuK3fuFu7j7nkfYOyAz6AfgKWzFCAlg1Z7fd0d+2WD03ssOSSeRBevpojn/902/g7rMuE/scIdZvRKPK0Y4HOKiMzDpA5HFpqTQsbicrxFqLdrdD0IxncN0oa8RuEDHkMsJNV0/xqz9xC7/9389z/6M1qs2NM0yPBiNd+C0ZEQEIiMOFl5q8Nt+Itu3s/lsXuxGAVThzIsWVR9NRLMBuSymCY5Tbz07z0R+4jnL1Eb72lMUPWN4qaYQYYm+UfWNEBACK8OpCNN8um0zs7eaZhRZmJkJOziruHgQAkQhcR3nDmSl+8+fv5Fd+9wEeeDqg2oDRm4M5+HNHIzQGiESgGuUU2uilO3xZld3kl9oUEUPKc7j6WI5f+8lbeeP1aSYyOqQRDePNSAlg35HetW1RBjqH284c4p9++EbedGOWQoY16VWGn4Mt2vEWQI8RERxHuPPcNL/0I9dz2xkXz1WMGf4ZoshtYver26NCIoAeE40JhJuvmeJjP3s7d58z5FLK9nNObMwK57d97lkO+vRnm0QAfUBEyKYdrj2R51d/4lbefFOWXMaucEzbzau9bCFtb9I9nq/7ZYG0S5zs6+CSCKBPRMm3DHecm+af/PD13HUuHfUEe3GbiFv+XsywiiiHp9LMFrz9P/kQkQigj7TNoTvPzfCrP34Td55xSDnDFexPHLrjSoubz04xPZkedIF6SiKAPhMNjOH605N87Ofu4I5rhXx67TzsZp6ePX0puBJywymXb79rjmzKjEwM824YmACk8097sLWbmKg9vtrbI3WZIf141CJCNuNw5mSeX/vHt/HWW/LROoEuv1Rtn17traAsriiHcsobr8/xKz9+EzdcNYXjHOw2cqCJsVIuTGZCPIfBLTZqtGl2xnMxpn/FMBLtT3DnddP8wg+eI/gvj/Pca61OY9CfGZio3Rcir9aJnMPdN83yve86yfWnJ8hl3CEzz/Yf0UHlH9Eou0IjiDaUHvSN9tzIPm9vgtEvVMGqUmuEVOpBJ7FQ/x7KsgDyWZdcKvq/Gb0Vu10xUAEoGrkkMHgBiESvQZTFEolAQ+LFJ+nvJHwsehHpay84DAxOAAkrGIZGYBw52COcESKp/IMhEUDCWJMIIGGsSQSQMNYkAkgYaxIBJIw1iQASxppEAAljTSKAhLEmEUDCWJMIIGGsSQSQMNYkAkgYaxIBJIw1iQASxppEAAljTSKAhLEmEUDCWJMIIGGs+f/dYudg87QUwAAAAABJRU5ErkJggg==;" vertex="1" parent="1">
          <mxGeometry x="459.9999999999999" y="180" width="64.36" height="60" as="geometry" />
        </mxCell>
        <mxCell id="H9gFOr3YN2ZNxRey7TpE-34" value="Terraform&#xa;Infrastructure as Code" style="shape=image;verticalLabelPosition=bottom;labelBackgroundColor=default;verticalAlign=top;aspect=fixed;imageAspect=0;image=data:image/png,iVBORw0KGgoAAAANSUhEUgAABFgAAARZCAYAAAD+X7QAAAAAAXNSR0IArs4c6QAAAARnQU1BAACxjwv8YQUAAAAJcEhZcwAAFxEAABcRAcom8z8AAMkcSURBVHhe7N0JeBxnffhxOxc5CSEQQgIhQLhCOQ3BMfK+M+87uxJNuEpEEks7MyvJDkc5QkuB0v4FlKOFHlxNG9pCuYlJbGklO87NfYY7JcQQHB/SzsyuJEu249vzf9/ZMXES5fCxu9rd7+d5vo8sBYi12rX3/THvO/MAAAAAAAAAAAAAAAAAAAAAAAAAAAAAAAAAAAAAAAAAAAAAAAAAAAAAAAAAAAAAAAAAAAAAAAAAAAAAAAAAAAAAAAAAAAAAAAAAAAAAAAAAAAAAAAAAAAAAAAAAAAAAAAAAAAAAAAAAAAAAAAAAAAAAAAAAAAAAAAAAAAAAAAAAAAAAAAAAAAAAAAAAAAAAAAAAAAAAAAAAAAAAAAAAAAAAAAAAAAAAAAAAAAAAAAAAAAAAAAAAAAAAAAAAAAAAAAAAAAAAAAAAAAAAAAAAAAAAAAAAAAAAAAAAAAAAAAAAAAAAAAAAAAAAAAAAAAAAAAAAAAAAAAAAAAAAAAAAAAAAAAAAAAAAAAAAAAAAAAAAAAAAAAAAAAAAAAAAAAAAAAAAAAAAAAAAAAAAAAAAAAAAAAAAAAAAAAAAAAAAAAAAAAAAAAAAAAAAAAAAAAAAAAAAAAAAAAAAAAAAAAAAAAAAAAAAAAAAAAAAAAAAAAAAAAAAAAAAAAAAAAAAAAAAAAAAAAAAAAAAAAAAAAAAAAAAAAAAAAAAAAAAAAAAAAAAAAAAAAAAAAAAAAAAAAAAAAAAAAAAAAAAAAAAAAAAAAAAAAAAAAAAAAAAAAAAAAAAAAAAAAAAAAAAAAAAAAAAAAAAAAAAAAAAAAAAAAAAAAAAAAAAAAAAAAAAAAAAAAAAAAAAAAAAAAAAAAAAAAAAAAAAAAAAAAAAAAAAAAAAAAAAAAAAAAAAAAAAAAAAAAAAAAAAAAAAAAAAAAAAAAAAAAAAAAAAAAAAAAAAAAAAAAAAAAAAAAAAAAAAAAAAAAAAAMDBi+cPiviY7u47juvujo9OvwgAAAAAAIBHyxPrju8RGy1Plvpdp/yagWzp6ek/AgAAAAAAwKPRt6h8Sq+18e2uCm90ZTjiqeDvfTm2+HIx9oT0PwIAAAAAAICH05stndQrNr05L4PbXRnMeCocz6vgm65dKiyx//i09D8GAAAAAACAh7Ls4rET8/amPtcOflJwJuJlXbtiV4Uzngy+78rg383WoV5744vmzRs8Kv2vAAAAAAAA4EBmwNJrjfW7dumHrgp392dn4kJ2IjbDFlcFsSej37oq+uceJ1CFrvEnDg7GDFoAAAAAAAAO9IABy66+7ObYdypxX3Y67s9tMb/e56vKeF4G1+ve2Ssm/oyrWQAAAAAAAA4w24DFU+Gf6stOxUs77zVXs+x1VfkXvjN5taeCZW6uckG3M3lq+j8DAAAAAADQvh5pwOKpKLmixXfKycdCdmK3K8M/uk50dSFbuWSJCp7xtq61j0n/5wAAAAAAANrPIw9YqpkBi9k2tLRze1zITsWuigJPRd91VfBPvXJ9dtmCsRPT/0kAAAAAAID28mgHLAdmDsA1w5Z00LLBlcE3PKv0dt8uSa+zdO68efH89H8eAAAAAACg9R3KgGX/tiEzaEm2DqlouyvDUH/9Fs8pvdfLbnpxd/cdx6X/CgAAAAAAgNZ2aAOW/UVxITsZD+S2xgOd95qhyy5flX+bV6X/crOV13siPDP91wAAAAAAALSuwxuwHFgUm/9uf24mdmW42VPl1QU58Te+DLK9ufA8T8THp/9KAAAAAACA1nLkBizmIFyzbWgy2TbkOZV7fWcy8FTw47wK/tETJavngrWPTf+1AAAAAAAAreNIDlj2ZwYt/bkt8bKuXXFfdkp/Lfqj/vo1+n//zUtU8IL0Xw0AAAAAANAaajFgqRYlVQ/CnYjN/7arol+4Mvq4p0oX5dWmZy/pWH9a+tsAAAAAAABoXrUbsFQz24XMtiFzS2fPiXb7Kip5KviZK8P/ce3g8p7F0ZPT3woAAAAAAEBzqvWA5b7MIbhT8UBuWzzQuS32nPJm/fVbXVl+jytLF1y84PYT098SAAAAAABAc6nfgMUUJVe0mDNa+pyp2Fdl87U/eKryn31W5Q2+Ez3LE1OPGxyMj0p/ewAAAAAAAHNffQcs92W2DfVnZ/SvzdBlIvCdys/117/myeBNeTX97PS3BwAAAAAAMPc1asCyP3M1y0Bua3LHIf3v36u/9mPP3NZZhV2XOevPSn+bAAAAAAAAc1ejByzVK1gqyd2GCtnJ2JXhXlcGkf69jOZV+JYeWTm/p6vy2GULbj82/S0DAAAAAADMLY0fsNxXcjaL/vcnvwenvMVT0a9cGVybd4L3551xwUG4AAAAAABgTppLA5b7qt5xqD+3Jbm9s++U17mq9CVPli7zOqfOHZzHIbgAAAAAAGAOmZsDFnM1Szk5CNcMWJKtQyrY4qroe66qvM/PjL+8W4Qnd3cvPzr9NgAAAAAAABpnrg5Y7stczTId9+e2xp4M9vhq4reeKq/w7PIH8nb054Wu8Sem3woAAAAAAEBjzP0By/7MYbjl5NbOZuuQq6IJ/bUVrgyu8DMbXvCaRXeekn5LAAAAAAAA9dU8A5Yw9lU52TLUn5tJtw1FW/Tv+TeeCq7qlZteveSi9ael3xYAAAAAAED9NNOA5cDMbZ37smbQMmUGLSX9tdWeDD7aY49d3mOXn5N+ewAAAAAAALXXrAOWatVtQ4XsRHKLZ/21e/XXfuTK0od67U2Lup3JU9NvEwAAAAAAoHaae8BiipK7DZmrWfpyM7HvTOxyZbjeVcHXXRn0+os3PTX9VgEAAAAAAGqj+QcsBxYl57OYOw65KpjxnYlbCzL6hBm0eNmpF1+5cMMJ6bcNAAAAAABw5LTWgMUchFvdNpSkKvv013Z5KvqtK8NPuXL8VW/KbjlDiNuOSb99AAAAAACAw9dqA5b9mTNZzO2cl3beG/vZCfO1Ta4sXa8/vjuvopek3z4AAAAAAMDha9UBy4FV7zg0bbYNmSta7sjL4Cr9vbp5tenC3mzpjPShAAAAAAAAODTtMGCpbhuqJHkq2uvJaKv+XtflVfTNHrvU53WWzu3ujo9OHxIAAAAAAICD0w4Dlv2ZQYv5/gZy25LtQwVnctqV4Y+8bPiRHlGyerOlk9KHBQAAAAAA4NFrpwHLfUXJsCUdspivbfBU5cueKi/rtTctcmXl7MF58VHpQwQAAAAAAPDw2nPAYoqSs1nSAUvsO5Mz+uMmTwU35FX0LlcGL+w+/47j0ocJAAAAAADgobXvgMUUJB/NoGWg8954WddOc2XLnrwKf6X7z7xVujTvjJ2TPlQAAAAAAACza+8By4GZbUPluJA1V7VMmDsOzejH4xZPhn+Td8KOS8W6c81jlT5sAAAAAAAA92HAcv98xwxZppIhi+dE93oyXO864XdcWfqXHnss1/ea8inpQwcAAAAAAFDFgGX2zNUsfbnpeKBze/LRdyY25lXwTVcGA54Ye2768AEAAAAAADBgebjMnYbMFS2+U0lu7+yqYJengts9p/wPOnXp4t8/tVuEJ6cPJQAAAAAAaFcMWB5NUTJg6ctOmyHL7oIzcY8nwx94snSVK8NLPBGemT6cAAAAAACgHTFgObjM2SxLO7fHA507zOfTroyuz6vw3XkVXNjt3H1q+rACAAAAAIB2woDlYDPbhipxwZncf7eh3a6M7vZk8L/5bKnbXzzx1N5s6aTBwfio9CEGAAAAAACtjgHLoWcGLP3Zmeodh1QUubL0Q08Fn++VpbcuyWx4QfoQAwAAAACAVseA5fAzB+Gax60/tyXWj+E+X1V+kZfBJwqq4lwm735S+lADAAAAAIBWxYDlSJRuG8pOxQXHNLnHk2HoOdGQZwdLe+xNz3nbefseM29ePD992AEAAAAAQCthwHJk81U5uZKlPzdjrmaZKTiTP87bpS+7dnRlXk1cuGzB2InpQw8AAAAAAFoFA5ZaVb2qZSC31VzREnuyfLcrw88VZHhJb7b09O7z7zgu/REAAAAAAIBmx4CldpkBS192OjkI15zT4smw4qrge/px/qAnKgu7utY+Jv0xAAAAAACAZsaApdYFuiguZCeTrUOeE5mvr3Vl8A3XCd/To0oXXeaUz0p/HAAAAAAAoBkxYKlXUezvPwzXmUjOajFXtHiqvLpXhm/NO+PPMz+L9McCAAAAAACaCQOW+mYGK+ZuQ+ZqFvNYF5zJrfpx/7XrBJ/21HiXJ9Y9Lv3RAAAAAACAZsGApXGZYYs5BLf6mAfjvjOxQn/8e9cuv6ZXhOdxW2cAAAAAAJoEA5bGZg6/NduGknNanMk9+uMWV0Xf92T0/t5s5RXdC+4+Nf1RAQAAAACAuYoBS6NLD8F1JuKB3LZ4oPNecxDubk+W78qr0td6rVK/ua1z+uMCAAAAAABzEQOWuVb1jkN9uelY/zy2uTL6rv74YU8Gr+u1N76oW4Qnpz86AAAAAAAwVzBgmXtVtw1NVLcOOeVdngw3ezL4jf75/EdelS6+XIw9YXBefFT6IwQAAAAAAI3GgGXuZgYs/bnpeGnn9rigfy6+M1HyZOkG/bN6X48af3n6IwQAAAAAAI3GgKUZitJhyxb9sRznVfAHX1WuKtjRG3vt8EV5NX16+uMEAAAAAACNwIClWUruMpScz6J/TvsKztSkJ8O79D/7mmeH+T578mmD8wbZNgQAAAAAQCMwYGmm9t9xaDJe2rkjHujcbr4+o7/+bU8GHzXns1wmgyelP1oAAAAAAFAvDFiateq2oUJ2Ivb1r10VlTwZjuRV6W09cuylPZ3Rk5ctuP3Y9McMAAAAAABqiQFLM1cdsvRlp5KPnlPe4srwblcGq3pV6X1L7PEFQtx2TPqjBgAAAAAAtcKApTWqHoI7Ey/tvDe5osVzyv+Xl+HVeVW61BOlc9MfNwAAAAAAqAUGLK1SlAxWkm1DydahqdiT4VZXBt/zZPlvejLjLy90zTzxbV37HpP+6AEAAAAAwJHCgKX1Mrdy7stOJ3ky2tGXnVrryeCGXrv0YVeW7LeI8OT0xw8AAAAAAI4EBiyt3P47Du2M+7NbYldGG/Iy/Iono/58ZtNLzM8+fRoAAAAAAIDDwYCltfNVOS44E3GfM5n82pXBNldFv/Rk6SpzW+dLOsaf6Il1x6dPBwAAAAAAcCgYsLRDQXI+i7mapS83oz+PzNfH9c/7W3m79EnXDi7vERufkj4lAAAAAADAwWLA0m6lt3bOTcf9uS3mjJatnqrc4srwPZ4TLFzSsf609KkBAAAAAAAeLQYs7Vf1bkMTyZ2GzFUtvjO5w5Xhet8Ov67/2aU9i+95shDxMelTBAAAAAAAPBIGLO2duaVzf25rsnXIV+FUwZn6tquCz+ZV1KefE8+fNy+enz5VAAAAAADAQ2HAQqbqGS0T8UBuq/l8j+523UfyapPjyg1nd3fHR6dPGQAAAAAA8EAMWGh/ydks2Zm4X+ep8i5PBRv1c2KVK0vvWZINX5w+ZQAAAAAAwAMxYKH7Z+44VI7N86Df3HFIhjs9Ff3GlcH/6ufHm3vk2OKeC9Y+Nn36AAAAAAAAgwELzV6UDFrMVS1m65Cngn366/e4KvhS3ipdmnfGzunqWvuY9GkEAAAAAEB7Y8BCD5fvmKtZppJbOheyk7GvKhOuDH/oyeijeWesY5C7DQEAAAAAwICFHn37D8EtOFP68+ge/flX9Nff1muXpCfCM9OnFAAAAAAA7YcBCz36ouSKFrNtyGwfKmSndnkyDHXDnh0s80T5ueb5lD61AAAAAABoHwxY6OAzt3Seigc6791/W+cZT4a3ezK4qsceu7xncfTk9OkFAAAAAEB7YMBCh5OvKnGfM5UMXHwZVlwZ3pSXwfvzInB6c+F5gjNaAAAAAADtgAELHV7VbUPmfBazbciT0U5PBhVXBd/zZfihHidYePGC29k2BAAAAABobQxY6Ehlhiz92Zlk61ByVoua+L0rg2/oBnrFhvPSpxwAAAAAAK2HAQsd+aLkls792S2xq4Ldrgx/4svyh3wn7Myr6NndIjw5ffoBAAAAANAaGLBQLapuG5pM8lS0q+BMha4KfuY60af1P+/qX7jh8elTEAAAAACA5seAhWqZr6LYPKeWde2K+3NbYleGY7oh1x7/a19Giy9ewG2dAQAAAAAtgAEL1b4oGbQkB+HqPBnscWW41pPR/y6xx5b4TvSsvNp0evqUBAAAAACg+TBgoXrlO9UhS192Sn8e7fNkNJFXwR2uDL+Sd4KlvdnS09OnJQAAAAAAzYUBC9U/M2iZTLYMJXccUtF23yn/wFXBx1x7LJdX01zNAgAAAABoLgxYqDFF1Vs5O5XkjkMF/VE//yLdSi875ffZ5ecs6dh8mhC3HZM+VQEAAAAAmLsYsFCjM+ey9Gdn4kJ169B0wZn6laeCb7p2cGVvLnxRd3d8dPp0BQAAAABgbmLAQnOl6h2HpuNlXTtjPzth7jj067wMPuU74V9cnomeNW9ePD992gIAAAAAMLcwYKG5lNk2ZM5nMVez6OfjXt2E/vq3e+3wg54TLOxbVD5l2YL42PTpCwAAAADA3MCAheZiZtBinot9uWlzZctOT0a/95xwJK/CD/SqDV3dC+4+NX0KAwAAAADQeAxYaG6X3nEoO50MXFwVlfLmfBYZDOSd8ed5Yt3x6VMZAAAAAIDGYcBCcz1fmW1DE8m2IXMgrq8qW/XX79B90rfLsueCymMHB+Oj0qc0AAAAAAD1x4CFmilzS+f+3NbkqhZPlTf6amJUf/0jeSf8ix6x8Snp0xoAAAAAgPpiwELNV1Q9DDc7FffntpjPZ3RrXBm9I++MvyyvNp2ePr0BAAAAAKgPBizUnKVns+Rm4r7c5tiV0Tb9/L3TlaWv5FWpL++MnZM+xQEAAAAAqD0GLNTs+U4l7ksPwfWccLMrg+/p5/K/uXK8V//6hd3d8dHp0x0AAAAAgNpgwEKtUbptKDkEtxx7MtyZV+Gv9HP6n5eITc7lYuwJg/MGOQgXAAAAAFAbDFiodTLbhiaSq1nM2Sy+Ku/TXxtzZXC9q8av9HJjz02f9gAAAAAAHFkMWKhVM8/lgdw2/etgn6fKv9R9Jq/GPVeWLujpqjw2fQkAAAAAAHD4GLBQq+Yn24Yq+9vnq4kdrgzv1s/z//bT2zp3da19TPpSAAAAAADg0DFgoVbPnMlitg0t7dwe9+WmzfksoaeCW/Xz/cN5K+zsfWHppPTlAAAAAADAoWHAQu1UIbnj0FRyIK6novWujJZ7Mnxr3gk7XLnh7PRlAQAAAADAwWHAQu1VddtQcrchpxy7Mtqmv77RVcFoXpXe5omx5woRH5O+PAAAAAAAeHQYsFB7FsWF7GRyt6GBzm1m2LLdl9EvPBn8uyvHXm9u65y+RAAAAAAAeGQMWKi9i5LDcM22IXNOiyfDaf311Z6qvL3XDhflnbFzus+/47j05QIAAAAAwOwYsBCF1W1DydksldhXlW2+U96kv35rXgV/b27rfMnCDSekLxkAAAAAAB6MAQvRfZlzWcy2oWVdu+JCdiLWr4k7PRl83pXBFWbQ0t0dH52+dAAAAAAAuA8DFqIHZrYNlZMBi7miRX9tq/7arzwZXZVXpYu9ztK5fYvKp6QvIQAAAAAAGLAQPVTmahZzEK7JV9EeT0ah/vqPXRV81pPB6/Jq0+npywgAAAAA0O4YsBA9UuaOQ1PJ1iGT55TLnh2u1q+X9/XIscVXcj4LAAAAAIABC9GjKUquaEkOw3Umzdkse3Xjrgy/aq5mcWXl7LeI+OR58+L56UsLAAAAANBOGLAQHUxRMmDpz80kV7X4qjLhO+Uf+6r8ubxdznuidG760gIAAAAAtBMGLESHljkI12wZWtq5w1zdst2V0W2eHfy9a4c5T0wxaAEAAACAdsKAhehQM9uGqluGzEG4rgp2uTLcoD+ucWX5Pb4KXmBeX93dy7m1MwAAAAC0OgYsRIefGbSY147ZNuQ50b2ejH7ryeAbrgquvFyWLmDIAgAAAAAtjgEL0ZHLT+44NBn3ZaeTQ3E9Ff1Ov67+Iy9L3a4dPnNw3uBR6UsPAAAAANBKGLAQHcmqdxuqbhtKDsHd68pgs+7n+p9/xJfRS5ctiI/lbkMAAAAA0GIYsBDVqijZNjSQ2xoXnAnTH3wZLfdk+De9dkl6Yupx6csQAAAAANDsGLAQ1brqVS19uem4UH19jbsy/Kpnl/P6dfd8Bi0AAAAA0AIYsBDVI3M2y1Tcn5vRHyfM1yY9J/yxK8Ore2V0WV5Nn56+JAEAAAAAzYgBC1F9M9uF+nPmENyK/jwquzK6xVXlD+ZV8NrexaWnpy9NAAAAAEAzYcBCVO+i5G5D1cNwzdUs5diTwbTrhLfl7dJ7ezLjL2fbEAAAAAA0GQYsRI0qSgYs5pbO1ds6V7Z7KviDZ4cr8nawtG/R+rPSlykAAAAAYK5jwEI0F4ri/ux0cschT4Z7fKfyA0+Of7RHBq/PO5XndZ9/x3HpSxYAAAAAMBcxYCGaG/mqnJzLUm1ir/7ava4T/syT5Y8WnEhcLsaesGxBfGz60gUAAAAAzCUMWIjmVuZslv7clnigc3vya9eJ7tZfX+Ha4ft8Obm4e158dPryBQAAAADMFQxYiOZq5tbOE8ntnc1r01XltXkZfTFvh3nPHl+w5KLNp6UvYwAAAABAozFgIZq7HbhtyFPRPt0WTwZ3eWbQokqXmoNwu7uXc0ULAAAAADQaAxaiuZ8ZtPRlp+L+3NbkjkOeqky4KviOK4OP562xTk+sOz59SQMAAAAAGoEBC1EzFaXDFnNr56nYlcGk/nx5Xo17BTt8UW+2dEb60gYAAAAA1BMDFqJmK4oLzkQyYDFbhwrO5Iwrw7s9GV3ny/IVeRU9e3BefFT6EgcAAAAA1AMDFqLmzQxYBjq3xUs7d+rPox36NfwjV4b/4snoMjNoSV/mAAAAAIBaY8BC1OxF1StZshOx50SxJ8OKJ8vf1a/nD/p2uKjPWX9WV9fax6QveQAAAABALTBgIWqNqkOWqWT7UHI1iww36I83mkFL3hnrYMgCAAAAADXEgIWotfIdcwju5nggtzUuZCdjzynf7crSV1w5foUrgxemL30AAAAAwJHEgIWo9fKTbUPl6lUtzmTsynCXJ4O7PFn+F9cez5i7DV2ycMMJ6R8DAAAAAIDDxYCFqHUzgxbzmu7PbUkGLgVnaoP++q15GXzCs0oX5dWm09M/CgAAAAAAh4MBC1F7ZK5mWdp5bzyQ26Y/j8q6Ffo1/+be7NTT0z8OAAAAAACHigELUbsUJQfgFpypZNjiO5M79Nd/5ToTb0z/OAAAAAAAHCoGLETtVKCLksNv3/TnceyqYHdehW9L/zgAAAAAABwqBixE7dnSrl1mwLKrV5Xenv5xAAAAAAA4VAxYiNqzpV07Y1cGOxmwAAAAAMARwICFqD1LByw78qrEFiEAAAAAOFwMWIjaMwYsAAAAAHAEMWAhas8YsAAAAADAEcSAhag9Y8ACAAAAAEcQAxai9owBCwAAAAAcQQxYiNozBiwAAAAAcAQxYCFqzxiwAAAAAMARxICFqD1jwAIAAAAARxADFqL2jAELAAAAABxBDFiI2jMGLAAAAABwBDFgIWrPGLAAAAAAwBHEgIWoPWPAAgAAAABHEAMWovasUQOWvNp0ep9TPmvw/Pi49EsAAABHhBArH9fRsfqJixYNnTJvXvfR6ZcBoD4YsBC1Z40ZsMTz9b/vYtcp/7Vvh4uWLbj92PQfAAAAHBYhVp4r5epLhBi5TP/6xUJ84fj0HwFAfTBgIWrPGjVgcWX4HleVf+3awdd7nNIb887YOek/BAAAOGgXXvilMzKZ67KWNfQJyyper/uMECuthQuvOSH9jwBAfTBgIWrPGrVFyLXDDxeyk/r3UN7rquiWvArfnVfBhT1i41Mu1n8epf8xAACAhzPfbAUSYuhlQqx4sxDD19r2yJRlDe8SorjcslaIrq7Vj0n/swBQHwxYiNqzRg1YPCf8h77cdLzsVbv17yO615XhH/Xv51b9e/l43hnrfM1r7jwl/Y8CAADMyrZXPDOTGXqXZRVXCVG8y7JGNzvOzbH+PBZi6JrFi4cyDFgA1B0DFqL2rGEDFhV+wHfK8dLO7bH582ag8964PzsT+87EJv37udZ1goG8M/68efMGj0r/KwAAAImOjmufYdtDr7GsYbMd6Fe2vSp2nFtipW7UH2+OhRjeofsKAxYADcGAhag9a/SAxQxWfBXFvlNJ6stO6d9PuEv/OfQzX5U/3GuXZJ+z/qxlF8dsGwIAoI11dy8/TqkVp9v26CLbHnmfEMPf0k3rz2MzYKl+HEmGLAxYADQUAxai9mwuDFju+/1EydUs5koWTwZ7Cs7kOv17+66ros/62ajb3NY5/a8DAIA2cv75y4+zrKKwrJF/sKzhm2x7dK0QxR1SrolN+uvJtiATAxYADceAhag9m1sDlvsyV7OYf2bSfybNuDK63lOld+czmy70xLrHpf8zAACghS1YUDxRyqHzbXvlEiGK/2tZoxulvCFW6qbYtlffb7DCgAXAnMGAhag9m7MDFhXFBWciNncaKmQnzBUtOz0nvNtzgi+a2zr3iMpTPLHueM5oAQCg9ZgrVhYvvu7JmczKP7ft4X+xrOGfWVZxixmqVFs163DFxIAFQMMxYCFqz+bqgOXAzKDFbBtKbuvsRGVXBd/Tf059zrXH36x/7y+cNy+en/7PAgCAJtfRMXqaZa18g20Pf0qI4Vsta3S9GaaYK1ekvH7WocqBMWAB0HAMWIjas2YYsOzPV+XkENw+c0aLCvZ5qvwrV5b+Ja8qTm+2dEb6Pw0AAJpQLrfm8bY98iLLKl5h28NrLGt4W3WockNygO0DBykPFQMWAA3HgIWoPWumAYs5BHf/nYYKJmdyT14Gkf4zq+jZE0v9TPSsQREfk/4rAABAU4jnO85N59j2qiWWNfwlyyreZdsj95qtQOaKlYfbDjRbDFgANBwDFqL2rLkGLAcWxf25LUmeDLf6zuSPfBV9wZXRO3w7XNT7wtJJ6b8KAADMUbZ9/XOEGPYtq3iVZa36tv44pZQ5xPbgrlo5MAYsABqOAQtRe9a8A5Zq5jDc5KqWXPWMFldF6zxV/q+8LHV7onRud3d8XPqvBAAAc0B39/Kjpfzak2x7dFEmU/yQZY2aA2z33v9qlUd/xcoDY8ACoOEYsBC1Z80+YDFVtw1Nx/25rcmvPRlWkoNwZfihXjtcxJAFAIC5YcGCq4+17eteJMTKdwpRHLKs4fW2vWq3lGtiU3XAMvvg5NHGgAVAwzFgIWrPWmHAUi3QRclVLMm2ISeK9Z9la11Z+qong7/qVeNdfU75rPRfDwAA6sgMVqRccYFlDb1ViKH/rl61MrzTbAUyg5XZBiWHGgMWAA3HgIWoPWudAcv+zJahclpFf27uNhSWPSdc7cnwrfnM+PMuWbjhhPS3AQAAasgMNzo6Vj9x8eIVOcsqXi3E8HrLGt5rDrA1Z6xUz1k59O1As8WABUDDMWAhas9ab8BSzZzNYu42ZK5mMbd1LjiTW10Z/lr3Kf3Pu5Y5k6emvxUAAFADCxYUTzQDDiGGPyBE8RbLGg3MYMUMQKrbgQ7tENtHigELgIZjwELUnrXqgOXAfFVOzmdJ/1wbL2QnrtN/1r3Ps0oXuXb4zMF58VHpbwsAABymbPa6MyyrKIQYfqcQo1/Rv15nzlYxg49aDVUOjAELgIZjwELUnrXDgMV035ahKO5zpnZ6Mph2VfQ9147+zpWVC/oWlU/Rv6351d8dAAA4WGaQceGF1z7Ntof6LKs4LEQxtKzRHWYLkBmw1GI70GwxYAHQcAxYiNqzdhmwVA/BDeOCM5H8Owc6t5ttRHs8GdzlOtFXemWp/1J7/TPT3x4AADgIixdf9+RMZuj1ljX8r7of2/aqLUrdFJvMtqB6DFb2x4AFQMMxYCFqz9pnwPLAqnccSv+su9d1ou+7qvRh1y6/ZokKXtBzwdrHpr9VAADwEIRYeW4ms+JVlrXyby2ruEqI4YqUq9M7A9V+O9BsMWAB0HAMWIjas/YdsFS3DZkrWpKtQ060y1PBpCejX7syujpvjb32cjH2BP1bZdsQAAAPIMRtx3R0DJ1vWcX3636oi2x71fb7bweafQBS6xiwAGg4BixE7Vk7D1j2Z34ffdnpeKn+vZiPvjMZ6Mfk+rwK3uWJ8MUcggsAwH2EKD5XiGFff/xvyxq501yp4ji3pNuBVs069KhnDFgANBwDFqL2jAHLgUXJ1Sz9uZnkc/1n4W98Z+JfXTF+if6z8fn9uc2PT3/7AAC0FXPLZSGGz1u8eOgiIUY+LETxR2aIIeX16VClfmesPFIMWAA0HAMWovaMAcsDi+KCMxkXslOxJ4M9fc5U5Mnwt64Mv5p3yvk+e/xp6bcAAEBbuPhiM1wZdYQY+ZQQwz+z7VUlyyruMofXmvNW5tJwxcSABUDDMWAhas8YsMyWueNQddBiHp+lnTv05+Ut+p9925PhP/TKseySjvWnpd8KAAAtyQxWLGvoFbq3CjF8rWWNjkt5Y7IdyFy5MtcGK/tjwAKg4RiwELVnDFgerij2VTnZNlTImsNwI/21YNxV0XLXDgu9ovRnvdnSGcsW3H5s+m0BAND0HGf5qZnMiudZ1spLhRj5T8savlO327YP3A40N4crJgYsABqOAQtRe8aA5dFlhizmz0U/uetQNGW2DeVlaTjvhO/1cuUF5m4K6bcGAEDTUmrF6ZY11CPE8Fd1v7SsVaFlFfdVz1qZe9uBZosBC4CGY8BC1J4xYDm49h+Cu7Rze/JrX038Vv+Z+R+uHHt9j6g8Jf32AABoKhdeeN0ZQoxYljX8Hssq3ipEcYdSN8emuXBnoIOJAQuAhmPAQtSeMWA52MydhqrbhszVLH3Vw3CnXRXd6DqVd3j2+IK8mj69q2stb+YAAHNad/fyox3nplOFGPkzIVYNWFbxOt2YZY3sNUOVaqNxM1y1cmAMWAA0HAMWovaMAcuhZ85n6c9OJ1uHXBltK2Snfqsfy+uTg3Dtsuy5YO1j028XAIA5xwxWbLt4pW0nB9j+yrKK02YrkFI3pIOV2QcYcz0GLAAajgELUXvGgOVIlN5xqHNH3J/bYj7f6MrwK/rP00JBVs7v7o6PS79tAAAabPAoIVaea1kjnZY1/An98dfmShXHMVuB5u6dgQ4mBiwAGo4BC1F7xoDlyGS+FzNkKWSnkl97MtzqOsHPPRl8otfeKN980frTus+/g0ELAKAhzHYgIVY+TojrFgox8j7bHr7ZsobLlrVqrzm8tlrzXrVyYAxYADQcAxai9owBy5Es0EVxITuZHIRrfq27Rz++a/Q/+0SPPXZ53hk7J30IAACoCyEGj7HtoYxtD39AiOFhy1r1W8sq7pTyhljKNXErXLVyYAxYADQcAxai9owBS60yh+FWb+3cn5s2n2/1VeVWT4Z/49nlBT1dFc5nAQDU1IIFxROVWvVsyyq+QfdFIYpB9YyVG+PqnYFaa7CyPwYsABqOAQtRe8aApXb5ydks5k5Dm+M+s33ImdzhqegP+vH+H1dWXu/9eXjmvHnx/PQhAQDgiFFqxem2XcxZVvHfhBi+3bJGps0WIHPFipStsx1othiwAGg4BixE7RkDlvpkrmYZyG1N7zgURr4zdZP++KleWfL1n7vPH5w3eFT60AAAcMiEGD0zkxl6vWUNf8y2V41aVnGjOV9FqZta+qqVA2PAAqDhGLAQtWcMWOpZlNza2Xcm0rsNBXs9GZqDcD/qWYHqW7T+LCFuOyZ9iAAAeNQ6Or56mm0PP9+yim+1rJEbhRjeaq5WMUOV6tUqrT9Y2R8DFgANx4CFqD1jwFLvzNksZsAys/+Wzrv147/BleFo3i69t2fx2EvThwgAgEflFa/4+rlCDPda1vDnLav4f5a1apsZrih1Q9tctXJgDFgANBwDFqL2jAFLowqSM1r6nKm4LzcTmz939dfvcO3gC242uCLvhB3dzuSp6cMFAMCD2PbQczKZIdeyVvybbY98y7KKU0pVByuW1bpnrDxSDFgANBwDFqL2jAFLozNXtJhtQ5Xko/5Z7NF/Bq9zVfQl14neeOniTU/t7r7juPRhAwC0ue7u5Ud3dIyeZtsrFwgx/EHLGvqVGSbs3wrUbtuBZosBC4CGY8BC1J4xYJkbmcfC/Lnbbw7CdaZiPztR8VTwfXM+iy/HFgsRczYLALS9eH4ms/IFllV8uxBD1+qP63T7zAG2920Hmn3o0E4xYAHQcAxYiNozBixzL3NrZzNoKWQnY0+G6wtq4kv6z+U3561x4YmtZ6YPIQCgTWSzN5xk26PmihXftkc+a1nFXwhR3GMGCe14xsojxYAFQMMxYCFqzxiwzMXMtiGzZaiS/LrgTO7wVVDSvx72VHlZn11+ziULN5yQPpQAgBa1YMHVx+Zy1zzeskYvEmLkv4Uo/sG2R++1rJG91e1ADFdmiwELgIZjwELUnjFgmcslw5V4aef2eCC3TX9e3uLJ8KeuCj7bK0uXuXLD2enDCQBoMUIsP1mIlZZlFd9vWSM3WNZoaA6wdZxbYimvj22bwcpDxYAFQMMxYCFqzxiwNEe+Kidns5htQ64MJ3Q35+X4+3vtkuwV4XkchAsAraGjY/UTLWv4lUIMv9m2R75sWcU/mqtVpDRnrLTvnYEOJgYsABqOAQtRe8aApVmqbhsy57OYYYv+fIergshTwXf1z+4jS6yxV16s/xxPH14AQJMxdwfq7LzuyZnMUJ8Qw6OWVdxg26u26I/7qncIYjvQo40BC4CGY8BC1J4xYGm+/OQQ3JnksUvPavmD/hl+I+9ES/Mdm56dPsQAgCbR2Xn9k4Uovs62h/5Jf/yRZRW3K3VzbLLt1TGDlYOLAQuAhmPAQtSeMWBp1qIkc0VLX25a/zrYrT//aZ8sf6hXBlnXDp/ZLcKT04cbADDHCHHbMUKsfooQxQ7bHr3SsoZXW1ZxwrbN+SrmahWzHYjByqHEgAVAwzFgIWrPGLA0d+YxLGSrZ7N4KtpVcKbGPRn8VP9MP523x/+8f+GGx6cPOQBgDhFi9MVCFP/Osoq32vbIBiFGtpqrVaoH2HLWyuHEgAVAwzFgIWrPGLC0SlFs/txe1rUrHshtNV8bd2VpyFfBu/JirIOrWQBgLojnZzIrnqcX/pcLUbzaskbvNEMVx7k1lnINg5UjFAMWAA3HgIWoPWPA0kqZg3DLybahglOJPSfY7apgrf75/q8nS5cVVPCMJR3rTzNv8NMfAwCgDhYuvOYE2772aYsXr+wUYuTDllX8oWUNp1esrE4HK2wHOlIxYAHQcAxYiNozBiytl7//bBb957j5tedEFU8Gv3RV6Ut5J1i6RAXPSH8MAIAa6+5efpwQQ45e+H/asoZ/YFmjG/Svd5mtQGwHqk0MWAA0HAMWovaMAUtrZwYt/bkt8UBum/l8h+eUf5CXwUcLKnAu6Vj7xPTHAQA4woRYfrIQQy8TojigF/3LLWu4bBb+jsOdgWodAxYADceAhag9Y8DS6lW3DZnbOReyE7GvJva6Kijrfzbsq6jPd6JndTt3n9rdHR+d/mgAAIchm73hJCFWnpvJDP+FOWdF9zvLGt5t7gpkBitsB6p9DFgANBwDFqL2jAFL+2SGLP3ZmWTrkP58puBM/iKvgmtcFV2Zz0Qv6Z7HkAUADofjDJ1l28W8Xtj/j22P/EiIYmBuuWwW/NVbLzNYqUcMWAA0HAMWovaMAUs7tv+OQztj35mIPRn9xpXhp/J2+BeXZ6JncTULABycRYuGzuroKArLGvlb2x75ll7k73ScW9I7A5nByuyDAKpNDFgANBwDFqL2jAFLe2Ye+0J2Ku5zpvTPP9yrv1b2ZPgt1w4/6Ilg4SULN5wgxG3HpD8uAMCDzdd/Th4vxLXPzWSKbxGiuKp6xcrILilXcXegBsaABUDDMWAhas8YsLRzQeyr6qClPzejP492eTL6vStLQ54TvT/vjHVelNzWGQDwQFIOna8X82+3rKEvW9boz227uF2pm/Ti/oZ0sDL74p9qHwMWAA3HgIWoPWPAQtXuu7WzGbi4TlTyVXl5jwwG8s6655krWtIfHQC0re7u5Uc7TvGcTGY4a9ur/8m2R+40wxQzVDFXrXC1ytyIAQuAhmPAQtSeMWCh/SXbhpzJdMgyaQ7F3eLJ8DeuE3zas8qqb9Gdp6Q/PgBoOwsXXnOCbY8usKzR9+uF+w+kXFO2rJG9Ul4fm7hqZe7EgAVAwzFgIWrPGLDQbJlBy0Bua3I1i/58rOBMFF1Z+pB+rrzeX7zpqemPEQBaXvW2yyNWJjP8Htse/bpljfzW3G45m70tGaxw1crciwELgIZjwELUnjFgoYcuSg/DnUzOaHFVtMWV4U3JbZ3F+Mv6c5sfn/44AaDlCLH85MWLh58uxMhlQhS/ohfupeqVKqvSOwMxWJmrMWAB0HAMWIjaMwYs9PCZs1nMgGVL3FcdsmxzVfA7V4Zf8WTUv8SefFr6IwWAlrFw4TWPz2SGXqMX61fpfmHbI5PmrkBm4W6uXmG4MrdjwAKg4RiwELVnDFjo0eY7leR8lr7cdOzJcNpT0ffzsvSvrh1c3mtvfNGyBbcfm/54AaApCbH8zExm5asta2jQtkdGLWukYg6wrQ5WzFUrsy/oaW7FgAVAwzFgIWrPGLDQweTv3zbkVJJfuyrY7qnol64T/ovnBOqShRsePzgvPir9MQNAU1i0aOiUjo4Vzxai+CbdLXphPm3bo/uq24FGdVyx0kwxYAHQcAxYiNozBix0KFVv6Twd9+e2JgMXzylv9FSw2rXHr8w7leelP2YAmPOkHDlbiNFevTD/spRr7rDtke1mgV69asVsB5p9EU9zNwYsABqOAQtRe8aAhQ636iG4W9PPo18VshOfzKvyEs8uL+h2Jk9Nf+QAMIfE82176DmZzNDrLWvkH/Si/Dbdbu4M1BoxYAHQcAxYiNozBix0uFW3DVWSPFXe6zuT21wV/d5X5f/OO+Ff9Dnls5YtiDmfBUDDdXcvP7p62+XhhbZd/IgQo7db1sgWvSjfXd0OtJrtQC0QAxYADceAhag9Y8BCRyozaDHbhpZ27khu6+zJKNR/n9zsy/BDrh3mukV4cvrjB4AGiOd3dIwusKzhv9KttO3i3Wao4ji3xFKuSc5amW2xTs0XAxYADceAhag9Y8BCtcgcglvITsW+Kps7Dq3XXZOXwZt6rdIrzBUt6dMAAGoum/3SSVIOv1Avti8XYuTf9QL8LjNMUcoMVbgzUCvGgAVAwzFgIWrPGLBQbapuGzKH4Zqfsy+jremgZcRTpbd7ufJzBwe52xCAWornm7sDSVl8lWUNf153l2WNbLbtkX3VrUBmSxDbgVoxBiwAGo4BC1F7xoCFaluUHoK7JflZ+6q8Q/cL/Zz7d1eOvf6yV9z9pPQpAQBHjBDLTxZixMpkiv9PylU3WNZIxSy6HedmDrFtgxiwAGg4BixE7RkDFqpPUXpGy5Rus3nOzbgyWuPLyjs8ESz0c5ue2n1+fFz69ACAQ9LRsfqJmczQS4QoFvRC+8u6SKmbDhiqMFhphxiwAGg4BixE7RkDFqpnZtuQ+fvFbB3yVGWb70zc48rwZk9Ff99rVV7hiXXHp08RADgor3xl8RzbHl4mRPE63R9se2TKbANS6gbOWmmzGLAAaDgGLETtGQMWakTmZ2+2DS3r2pVsIdJf+11eBp937bDgyo0v1E+R+dVnCgA8PNu+9mlSjrzeskY+ofuhZY3udJxbk0V2dbAy/KAFOLV2DFgANBwDFqL2jAELNS5zEG45LmQnYl9VYlcF2/TXb9d/D/2zL4Nsj9j4lG5xB7d2BvAg3d3Lj5Zy+EmWNfQKIYrvtu2Rb+m2WNZoXD3A1txyme1A7RoDFgANx4CFqD1jwEKNrjpkMWezTMWeE+32VbjJVaXvuzL8lDkIN682nZ4+bQAg8cpXXvcivXj+e72YvtGyRsx2oO1SrolN1eHK7Atvao8YsABoOAYsRO0ZAxaaO5k7Dk3FA7ktyfYh34kq+uur8ip4V48af/klCzeckD59ALShwcHBozKZFc/Ti+bLbXvVf1rWyO/N4bXcGYgeGAMWAA3HgIWoPWPAQnMpc6chcxCu70zEBWfSfL5H/530R/3P/suX5Vf3OeWzerOlk+bNizmjBWgTZnF84YXXnSHESsu2ix/RC+hf2/bqneZ8lWpsB6L7x4AFQMMxYCFqzxiw0NwsSgYs1StZJszQJSg4FbNt6Gr9d5Tbmy09PX0qAWhh2ewNJ2Uyq15lWSMf1wvnW217ZJ05Z8VxbuGqFXrIGLAAaDgGLETtGQMWmuuZ50l/biZe2rnDfL7TVcF38ua2znZJunLD2elTCkALEWLl44QYepnuTUKMXGvbI2WlbkoWztxymR4pBiwAGo4BC1F7xoCF5n7VbUPmEFxzS2dXBbs8Ga53ZTjUK8O/zKvo2V1dax8zOG/wqPTpBaBJLVhw9bFSXnO2ECu6LWv4S3qxfLdljdxrhipSmrsDmeEKV63Qw8eABUDDMWAhas8YsFAzVR20TOv031FOeUteBr/wnOCLvar0dleWLli24PZj06cYgCazePF1T7asoR69KP53vUj+jmWNTEh5Q3rVyupZF9JEs8WABUDDMWAhas8YsFAzZg7DNVezmL+rzPPIcyq/61Wl/+iVY6/LO2PnDM6LuZoFaBIdHaufuHjxyAW2PfrXljXyXb1A3qXUDZyxQoccAxYADceAhag9Y8BCzVl125C5rXN1yFLZ58pw0lXB9zwZvN8T4YsHRXxM+nQDMAfFcTzftlc/U4iRpZY1UrSsVWO6HWYrkBmucNYKHWoMWAA0HAMWovaMAQs1f1GybWggty35ta/Kv/Vl5SueDP7KlWX7zR2bT0ufdgDmCCFWvti2R5ZmMsXP2XbxR3pRvMtxbovNliCuWqHDjQELgIZjwELUnjFgoVbJbBsyzynz95e5ssVVQclT5a95TjnfZ296TrcIT06ffgAaoLt7+XFSjpydyazKWtbwv+qF8G/NMOX+h9cyXKHDjwELgIZjwELUnjFgoVbKV9UBS39u6/4hy5TrhD9xZfTpvCq/dslF67maBWiA88+/47jFi1cusqzhfxCi+G29CC7Z9sg+sxCWck1s26OzLpSJDiUGLAAajgELUXvGgIVatYIzkWwd8rMTsauikivDVXkV/L3rBK9ZooJnpE9FADWUzX7pJNseyuiF7juFKH7FskbuNncEUuqm5MqV2RbHRIcbAxYADceAhag9Y8BCrVtyHkuybcgciKv/bjMH4W72VPlbeTt8r98ZvbRvUfmU9CkJ4AhauPCaE8x2ICGGLhFi5Bt60RsIUdxrtgKZq1WqV6ywHYhqEwMWAA3HgIWoPWPAQq1f9ZbO/bkZ3ZbYV5Ud+jm/Vv+zL+uPvZ4Iz0yflgCOAMe56VS9sO3SfdKyRn5q26snzTag6nYgbr1MtY8BC4CGY8BC1J4xYKH2qnrHITNo8VRwr68qt3p2+QO9svRqL1d+7tvOW8ubcOAQCbH6KR0dRWXbo39t2yPXClGccJxbk8UuQxWqZwxYADQcAxai9owBC7Vb5nlnzmdJtw7t9lQ0o79+uyujjxWsSCzpWH9ad/fyo9OnKoBHIMRtx9v29c/RC9u3626yrJGKbodlma1A5g5BHGBL9Y0BC4CGY8BC1J4xYKF2zTz/zJUsSzt3JGe0eDL8oyuja10VXNmjxl+ePlUBPAylrn2GEEOFTKb4Bb2w/bVlje50nJuTBW711suzL4CJahkDFgANx4CFqD1jwEK0/45DyW2dzRUtd3gyusq1ozf22uGLLslteHz6tAWgDQ7GR+mF63mWNXSR7kOWNfJDyxrebc5Z4YwVmgsxYAHQcAxYiNozBixEB24b0qloj7nbkH5d3Ok50RddJ7i8pzN68rx58fz06Qu0rWXLbj9WiKGXWdbIxyxr6Gf6Y9m2R3dV7w7EdiCaGzFgAdBwDFiI2jMGLET35SeH4E7FA7lt1TsOOZVJ/Xfit1xZ+lCPKlmXLNxwQvoUBtrK4ODgUUKsfLFesP6lXsB+07ZX/VHK1bHj3BJLeYNe1HLVCs2dGLAAaDgGLETtGQMWotmKkqta+nKbk6taXFka95woua2znwle0JstncEVLWgHixYNndLRseLZUo683rJG/lUvXu8y24CUuiG9WoXBCs29GLAAaDgGLETtGQMWoocqSs9m2Rz7ytxxaHJSv1bW6q71nPKbeuxNz2HIglbmODedalmjr9UL1s8JUfyV/nWgf73PXLHCWSs0l2PAAqDhGLAQtWcMWIgeOXOXIfNcNa8X/fkuV0U/zMvgE76c6O6xy89Jn9ZAS1i48JrH60Wqsu2R91nW8GrLGp1Q6ubY3B3InLPywMUs0VyLAQuAhmPAQtSeMWAhenRVr2KpxIXshPl8n/67suw55e+4qvzBvAouvEwGT+rqWsubeDStjo6vnmbbw883t122rNFvWtaIuWLlT4fX2ra5YoWrVmjux4AFQMMxYCFqzxiwEB1c1SHLVFxwJvXn0Q5XRffkVXCDq0ofXGKP6zfyDFnQfC644LqnCLHiTUIMXStE8Q7LGt1sDrE124G4aoWaLQYsABqOAQtRe8aAhejQMle0mDsO9ee2xoXspPn8j64sfSVvB0uXqOAFnM+CZiDEdU/JZIqvymSGP2bbq35kWcPJViBziC1Xq1CzxoAFQMMxYCFqzxiwEB165rbO5oqW5KqW5IqWYKcng7s8Wf7XHjm2eMlFm097W9c+3thjThHitmMcZ/mpmczQSzKZ0bdb1vBtuu22ff3e6lagVcmWoNkWrkTNEAMWAA3HgIWoPWPAQnQkipK7DfXntsTmts4FZ2qDK8ObXRX8U15FF79VTZ+ePvWBhstkVr9ciOJ7bbs4ZFkjd+gF6c7qVSs36sUpV61Q88eABUDDMWAhas8YsBAd2arP621xv85zokpehSt8VX6L5wQLey8snZG+BIC6MgvMTGb0eZnM8Bv1ovM/LWvkD+ZWy0rdxBkr1HIxYAHQcAxYiNozBixER7ooLpirWPTfo+aj/jt1m/76b11V/rpnRf09XZWnLFsQH5u+FICa6u5efnQud83jFy++TlrW8L8KUfylXoDO2PboPnOIbXW4wlUr1FoxYAHQcAxYiNozBixEtSjQVQctfbnpZNuQ60RTngx/5Krxz+bVuHd5JnpW+nIAamLhwmtO0AvMLssa+qhlDa+yrFXrzfkqZvFprl5hsEKtGgMWAA3HgIWoPWPAQlTrouSOQ+ZOQ+auQ64Kdvoq+mGvLH2o1y5JT4Rnpi8L4Ii44IIvP9ZsBxJipW/bo9fqReZmM1Cp3nLZHF7LYIVaOwYsABqOAQtRe8aAhageVe82VMhOJYOWgprYqV93456MbtL/7O199uTT0pcGcFiy2RvOEGLl6/Qi83/04vJuKVdvMVetSLmG7UDUNjFgAdBwDFiI2jMGLET1zVzN0p+diQdy2/RrL9xbcCZ/5sngKk9G/T0yemlX11oWAjhoQqw81xxga1nDn7Cs0Rssa2TCcW6Jzd2BuOUytVsMWAA0HAMWovaMAQtRI6puGzKvgf7sdPK5J6Pf5lX4Sc+KLlpijz/tyoX7TkhfLsBDiOcLUXyCEKteZlnD77Gske+aRaXZDmSuWmE7ELVrDFgANBwDFqL2jAELUeMyr4G+7HTcn9uqfx3t06/FMVeGN3sq+kdfVrJv42oWPAzbHnqOXkC+TYiRIb2ovNuyRneYc1aqZ62smnXhSdQOMWAB0HAMWIjaMwYsRI0uveNQcgiuuZol2Kc/X+/J6Dr92nyHK0t2oWP8ielLB5hn29e9KJMZ6tOLx8/a9qrb9YJyr1I3JeescMUKEQMWAHMAAxai9owBC9FcyRyEW902ZA7E1a/Lvbpx/fXrPFnq953pZy1bMHZi+hJCmxHitmOUWnG6bQ9lLGv03yxreK1eSO7cvxWI7UBE98WABUDDMWAhas8YsBDNrfbf0rk/tyW5osV3Kps9GfzcleHn8lb5tb3Z0knpywhtYsGCq49VqvhyvXB8v+4W216z0QxUqletmO1ADFaIDowBC4CGY8BC1J4xYCGau+2/41B/bibWfzfP+HJixHOCd5ptQ35u4qnpywktSoiVj7Os0VcIMbTUslZdrReOfzALR3N3IO4MRPTQMWAB0HAMWIjaMwYsRHM5s22oEheciWTrUMGZ3OmqoOzJ8CZXRVf2y8kX9r7wlyeZu8mkLy20gO7u5cc5ztBZeqF4qe7rQoyst6xV2yxrZJ9tr04PsOWqFaKHigELgIZjwELUnjFgIWqOzKBloHObbnvsq2inp6Jf6r+v/1u/fq/oFRN/lr600OTMOSuZzIo36kXiVbrv2/bIVPWqlZtjM1ypLiCH77eYJKL7x4AFQMMxYCFqzxiwEDVb1TNaCs5k7Kpgi/78dteO/tmV46/qsTc955JLNpyQvszQRBYtGjpLypHFQqx8p2WN3KgXibuqt1y+Xi8YuVqF6GBiwAKg4RiwELVnDFiImq/qdiGzbWgi9pxotyvDCd1PPBn+a14FTs8FlcemLzXMcYODg0dls8NP14vCt9v28M1CFMdse9V2c7WKGa5w1grRwceABUDDMWAhas8YsBA1b2bbkPn72mwdKjhT+muVDXkVFD0Z/o2fGX95+nLDHGXbQ88RoljQC8LP2fb1P7es4X3mAFuzOOSqFaJDjwELgIZjwELUnjFgIWqFqofhmts6e/p1pb92T0FW/j0vShf7TvSsZc7kqelLDw1mFnq2fe3T9CJQWdbIP+h+vn9BWL1ahcEK0eHGgAVAwzFgIWrPGLAQtUpRci5L9e/v5I5DZVdGv/BV+XOuDC/pWXzPk9OXHxpkwYKrj7Ws4VfqPiZE8fuWtWpMLwZ3S7kmNjFcIToyMWAB0HAMWIjaMwYsRK2XOZtlaeeO9PUVTeivrdav87/1xHhXT+dWBi11dv75y4/LZFZcaFlD78hkRr5m2yPrzEDFbAfizkBERz4GLAAazgxYeqzxKzw7+Lm5vLg/t8W8KbvfGzYiar0YsBC1YmbLUDkZtJjDcF0V7tav8/WuioqeLL/Vy5Wf25/b8Pju7uVHpy9J1EA2+6WThFh5biaz8tV60fc/unFzlYptr0q2A7EliKg2MWAB0HBmwJIXm97kWqVfmjdkA7ltsc+AhajlY8BC1MqZbUMTybYhc0aL/nxGf/23nhN+w1Olt7t26fnpSxJHWDZ7gxmuvM6yhj+nF3k/tu1VkbkrkFn4SWmuWmGwQlSrGLAAaLju7vi4nsz6xfrN1of1m6/v+Gpioi87FffnZpI3Z9U3akH6kYhaJQYsRO3Rn+44lNtqrmjZq19/P9ev/U/pf/aGS8W6c9OXJg5TNnvdGZnMkG1ZI39l26tG9WJvi1I36QXfTekVK7MvCInoyMWABcBcMH/ZgvjYAVF5im8HSzwZflW/AVtnFl5mwFLITqWDFq5qIWqlGLAQtUv7tw1Vkq1DvprY66rSFlcFPzK3dTZXs/R0VR47KOJj0pcpHr355oqVTGbkWZY12q8XeCO6ipSrd1e3AlW3BB24ACSi2sWABcCcYvZl58VYh6dK79ZvvIr6Tdnk0s7teiG0Lb3EeLY3bkTUjDFgIWq/fFWO+7Iz1fPWZLin4Ezeqf++v85zwvf6drjokoUbTkhfqngUbHvFM/Wi7grLGvmSbY/+XIji1vuuWlk16wKQiGoXAxYAc1JP5z1Pdp3ya1y79G+eU/6On524x1PBPvOGrHqXIa5mIWr2GLAQtXPmqhZzx6Ht1b/XZXS3q8LP5VWwZImaeMFbRHhy+pLFLDo6rn1GJjPy57Y9+hHLGvmpXtjtU+rmuHpnIM5YIWpUDFgAzFmeiI/3RHhmrwyyrgr+KW+XfqU/7jZbhpJLjM2lxgxaiJo2BixE7Z25mqXgTMbm3DX99/k+/Xf8lOuEP8mr6KpeWX51t3P3qULcxrahP4nnX3zx1Sfa9nUvsqyhQSGKt1vWyJRtj+w2g5VqbAciamQMWADMeebNlWuvf75+w9Wn33x93XPKm8yVLOZuQ1zNQtS8MWAhInOIvfk/SwpO9XD76t/p5XFPRjd5TvgPvTJ43WUyeFL68m1rixevuMCyVr5HiKFrLGv0LjNQcZxbYinX6IUdgxWiuRADFgBN4+KLx050ZcnWC7KP6zdl3/ZVuM53ou3mipb7bgM525s3IpqLMWAhovtntg2ZOw5NJQfcuyqccGW4Kq/Ct/ly7KXdzuSp6cu4bSxYUDzRHGCbyRRfbdur/l0v2tabs1WkvCG9WoXtQERzKQYsAJqKJ9Yd78oNZ+dF2OHJ4P36zdd3PBltMW/IClmzbajMtiGiJokBCxE9sOq2oYnk/zhJ7iSoJra6Mrxb/1nxjbyMupd0rD8tfSm3vEWLhk4RYtSxrKHPCFH8pW1fXzEDFXPFipTX68UcwxWiuRYDFgBNq6CCZ/RaYz2uHf6Hq4Kf6Tdme5Z17Uq2DnE1C9HcjwELET1cBf13udkS3J/bqj+PthSykzfnZfBR14ne2CvC89KXdMvp6Bg9zbJGOoUo/p1ljQ7rX4+buwI5zq3cGYhojseABUBTE8kVLRtfaBZorgxHfFVe56uJ6eptIKv/79dsb9qIqPExYCGiR85sGzJXtZitQ9Nm29B2V0Xf82X0t712uMiczyJE3BIH4Qqx8nGZzIrnZTIjfbY9stKyRirVg2tXsR2IqEliwAKg6XV3Lz/aE+vO7HPGX+ap8jJfhV/Xi7ZSIbs57sttTrcMsW2IaK7FgIWIHm3mytTq1SxbYk+GO10ZrnWd6NpeWf4bT0y9OH15N61s9rozMpkhV4jiNZY1cqdtj0ybbUBmscZVK0TNEwMWAC3F3NLRswLlqdJHzP/D5TkTMwO5e9M7Dk3pN2kMWojmSgxYiOjgMnccMleomsPtzdUs0XZPlX/jyvBznhPme9T4y5ctGDsxfak3BSFWnmvbw39hWcP/YNuj39ILtN3mzkBK3aAXa9wZiKjZYsACoOUMzhs86gpZObsgg15XRsv1G691voymPRXtTQ7M03EQLlHjY8BCRIeS+TvcvIbNVS3mo/7aTleFv8vL8Oq8Nfbans7oycsWxMemL/k5x1x5a7YDKbXyBbY9+m4hij/SC7Mt+tf72A5E1NwxYAHQsvJq0+l5Mf4yzy7nff2mS78B+x1nsxDNnRiwENHhVL2l8+Zk21Dyf544lUD/mfJdV0Uf86yxV6Yv+TlHiJE/0wuxdwlRHLLt6+/Sv95tFmXmqpXqcGX2hRsRzf0YsABoed3d8dGeCBZ6VvB+V0bXezJcb96ILe3cod+Uzez/f7+IqM4xYCGiI5X5e90MWszAxVPRJl9NfN5VFbc3W3rF5WLsCenLv2HOP3/5cWawYtvDb7Tt0U/qhdhvzAG21TsDrdYLM65YIWqFGLAAaAtC3HZMz+J7nqzfhHW5dumfXVn6ta8mtxVUZc+fLjNWDFqI6hkDFiI6cpltQ5V0G7C569DUNleF9+jMwfe9npg6t6tr7WMGB+Oj0j8K6sK8/9ALrMfa9rAUYuRTQhTvsO2RLZY1srd6hyCGK0StFAMWAG3lyoX7TnDt0vN1b/Rl5eP6Ddl3zS0fBzrNIbjTyRu02d+4EdGRjgELER35orjgTMZLO7cnB9z7KpzyVPDdvAw+4crxS3oXl54ez5s3P/3joKbMWSuZTPFCvej6kO5G2x7ZaNvXx45zc2zuEMRghaj1YsACoG31Lr7n6a5dKrhO8A3PKd/tO5XdA7mtcX92Jvl/wBi2ENU2BixEVMt8VYn7nMm4kJ3Uf9aEY54sfbHHCtTgvHpcxRLPF2L5mUIU36sXXSVzZyAp13DGClGLx4AFQFvr6ao81lfjL3ft6O/0m7Efm6tZzN0JCumdCdg2RFS7GLAQUW0z24YmYvN/nujPd3iydFOvNf4GczZb+sdBzZitQUIMvcyyhj+nF107s9nbYnOHIK5aIWrtGLAAgNYrNpxnLh32VfhhX5av12/EymbLUN+frmYJDnjDRkRHIgYsRFT7onQLcLhT/3nzLf3nzaX1GLAsWHD1sWZxZVlDX7as4Z1K3TzrYoyIWisGLABwgLeqTaf7dvgXnl36L0+Gv3FluLmQnYr7c1v1G7QprmghOoIxYCGi2mcGLObOQuG9rizdnJel7voNWFYusqzhz+vuVeqmWRdjRNRaMWABgAfoW1Q+pWCHL+q1g2V5FVzjqjDqy80kb9DMooyzWYiOTAxYiKj2MWAhovrFgAUAHsIlHeNPzKvA8eT4+31n8pu+qvzOvFkzizJzNcv938AR0cHGgIWIah8DFiKqXwxYAOARdIvwZN8OF+Xt0gdcVfqh55Q3m3NZzBs2cyvI6lUts72pI6KHiwELEdU+BixEVL8YsADAo7Bswe3Hmts66zdob/BU+b/0G7Z7+pzN1Vs6ZyeTN3D3f0NHRI8UAxYiqn0MWIiofjFgAYCDsGxZfGxeBRe6MnxP3g6+6cnw1/rN273mbkPmLgW+U9Fv4rjjENGjiQELEdU+BixEVL8YsADAQeruXn70sovHTuwVG/7Mk2Pv9GRwgyvDyFXhbnM1i7nrUHXQwlUtRA8XAxYiqn0MWIiofjFgAYDD0CM2PsWzShd5MvqoXih+z3PC3cu6dsXmrkOczUL08DFgIaLax4CFiOoXAxYAOEyD8waPyqvo2Xl7U59+4/bFvuzUTzxVjswBuAO5rclBuA9+w0dEDFiIqPYxYCGi+sWABQCOADNkeYsITy6o4BmuE70xr4IvuCq4p6Aqe6p3GppIr2hh2xDR/hiwEFHtY8BCRPWLAQsAHGF9i8qn9IiNCz1VentBRkOejDYv7dyuF3P7r2ZhyEJkYsBCRLWPAQsR1S8GLABQI32L7jzFnM+i39B9zpPBz30VlXwZ7TF3G+pLDsI1V7RwxyFq3xiwEFHtY8BCRPWLAQsA1FBvtnSSJ0rnFlTpYl+F/+bK6Df6Dd6eglOJC1m2DVF7x4CFiGofAxYiql8MWACgDqoH4W56iSvDv/Ts0pf1G73fmCHLsq49cT93HKI2jQELEdU+BixEVL8YsABAHXli3eN6rY2v8LKlv9ELy9sK2c1jeqF3b8GZSN4A+k7lAW8MiVo3BixEVPsYsBBR/WLAAgB1tmxBfKwrN5ztqZLlOxPvcVXpZleGW/uzW+JCdv8huGwbotaPAQsR1T4GLERUvxiwAEADXbr490/Ny03depH5aV9Vbvec8u6lnTvi/py549DEA94kErVWDFiIqPYxYCGi+sWABQAazLzR8zpL53oyeJOrwhs9GYaeKm/z9ZtCc1vn6rYhrmih1osBCxHVPgYsRFS/GLAAwBzhiXVn5p2ww7NKb/dlcK1eeJbMm0KTORD3wW8aiZo7BixEVPsYsBBR/WLAAgBzTM8Fax/r2+N/7trhP3sy/JZuzLw5NItR89Fc2fLgN5BEzRcDFiKqfQxYiKh+MWABgDnokoUbTugX4Xl68fl6T5aucmV4t36DuMN3on1myxDbhqgVYsBCRLWPAQsR1S8GLAAwh/UtKp+SV5te4lml/j5n8mr9BvEOX5mF4fb0jkOzvZkkao4YsBBR7WPAQkT1iwELADSB7nnLj+5ZfM9L83bp3Z4KVhecqQ2+MxEP5LbpN47T6RUts72xJJq7MWAhotrHgIWI6hcDFgBoEkLcdszlYuwJyUG4qvKPngx/56lgn1koVrcN6Y9sG6ImigELEdU+BixEVL8YsABAE+oVG/7MEyXfVcFnfRX90JPhvf25rXF/dib2lbmaJTjgzSXR3IwBCxHVPgYsRFS/GLAAQBMrqOAZvgyu8GR0ne73vipvMVuG+nNb4oIzkbyxfPCbTaK5EQMWIqp9DFiIqH4xYAGAJtd7YekMX0aLPRm8U7+BLHoy3GoWjuYQXLOIZMhCczUGLERU+xiwEFH9YsACAC2izymf5anSRa49/k992ek1rgpK5k3lUnPHoeRqltneeBI1LgYsRFT7GLAQUf1iwAIALSWe33vhH87QC9aLXVX6D1cF/1fITm0xV7OYN5hm0GJu8/zgN6BE9Y8BCxHVPgYsRFS/GLAAQAvqFnec3Jvd8GeuGncLTvkbrgynzCG4fbn9t3Rm2xA1PgYsRFT7GLAQUf1iwAIALeyShRtO8OVYVi9iP+bJYI0no7tdGe4dMMOW7HR6NQt3HKLGxICFiGofAxYiql8MWACgxQ2K+JhuZ/JUX44t9uzwI64d/sST4WZfRXv6nMkDDsOd7Y0pUe1iwEJEtY8BCxHVLwYsANAmhLjtmLwz/jzPKvd4qvRJTwU/M9uFlnXt1m8+p5I3oQ9+Y0pUuxiwEFHtY8BCRPWLAQsAtJkrzbYhteEFntz0Vs8OV/TnZn6j34BuMVuG+nNb0jNaZnuTSnRkY8BCRLWPAQsR1S8GLADQhrq7lx/d7dx9aq+98UUFVX6zXuSO6iYKzuS+QnYiGbJUtw1xVQvVLgYsRFT7GLAQUf1iwAIAbc4T687MO2Odrip90FeV77oq2ru0cwdXs1DNY8BCRLWPAQsR1S8GLACAxNLO6MmuXSrkZXCtfiP6f/pN6YS5y5DZOmQOwq1ezcIdh+jIxYCFiGofAxYiql8MWAAAf7KkY/Npl9ml57v2uKvfiH7VleEG8+b0T9uGkiEL24boyMSAhYhqHwMWIqpfDFgAAA/St+jOU3rtjdKzxv+fJ0vDvorWmy1D5o5DhT/dcYirWejwYsBCRLWPAQsR1S8GLACAhzB41NLFZttQmHNV6Z89GfyyLzsduSrcbYYspuoVLbO9oSV65BiwEFHtY8BCRPWLAQsA4GEtu3jsRNcOn5lXwWt9p/JxvRj+hauCff25rXEhOQSXIQsdWgxYiKj2MWAhovrFgAUA8Ki59vrn6wXxFeZ8loKaXNvnTMXVOw7NcMchOugYsBBR7WPAQkT1iwELAOCgXLlwwwl9atNLfFX+oKvCn7kynPRVtNMMWArOJIMWetQxYCGi2seAhYjqFwMWAMBBi+fF8822Ic8qXaQXyIP6Deyt+uOWvuxM+ka2fMCbW6LZY8BCRLWPAQsR1S8GLACAw3Lp4k1P9eww78ng87rbPSfcbM5nWdq5Pbmixby55Y5DNFsMWIio9jFgIaL6xYAFAHDYei6oPNbLhi/25Fi/fgN7rSfDin5Du8tcyWK2DFW3DXEYLt0/BixEVPsYsBBR/WLAAgA4YnqzfzjDtcczrhP+dV928pq8Cjb1ZaeThSxns9ADY8BCRLWPAQsR1S8GLACAI65bxCd7VqBcOf5xT5Z+UHAmzRUt8UBuq36jOxWbxe2D3wRTu8WAhYhqHwMWIqpfDFgAADXhiXXH5527z8mrsdd6MvqiJ8PQP2DLUHXIwrahdo4BCxHVPgYsRFS/GLAAAGoqGbSIsQ5XBVf6KvqS7reuDPcN5Lalb3o5BLddY8BCRLWPAQsR1S8GLACAuhgUtx3T54y/zLejv8vb4a2eCjb5Ktppbu3cn5vhjJY2jAELEdU+BixEVL8YsAAA6mZQxMd4onSuZ5Uu8lXpg74Kf2jeAA90bqtuG0quZmHbULvEgIWIah8DFiKqXwxYAAB1t2zB7cfm1aZne/Z4Xr/h/Zx+8/t9VwUz/bmtyUG45qyWB79JplaLAQsR1T4GLERUvxiwAAAaZvm85UcPZEtP75Ul31PBNZ4M1xecyR0FZyp5Q1xwJpI3xw9+w0ytEAMWIqp9DFiIqH4xYAEANNwlHWuf6DnBwrwK3uU7E7d6MtxTvaXz5vRuQ7O9aaZmjwELEdU+BixEVL8YsAAA5ozebOmMvB0scWV4tSej7/qqXDJXsZitQ4XsVPJGmTsOtU4MWIio9jFgIaL6xYAFADCnvK1r32P6FpXPcuXY6z279F+eHd5l3hj7ThSbrUNm4FI9DHe2N9LUTDFgIaLax4CFiOoXAxYAwJzUt+jOU3qtja/Qb4j/0nNKX/RV+Mf+3LZ4aefO9GyW2d5IUzPFgIWIah8DFiKqXwxYAABzWv/CDY8vOGMdvjM+qN8g3+o7U3e7Ktjdn9ui3zRPJ2+e7/9mmpolBixEVPsYsBBR/WLAAgCY87q77ziu0DH+RNcez3gy+H+uKv3Qk+G9fdmp2Hcq1Ri0NF0MWIio9jFgIaL6xYAFANBULs/84Vl5telS1w4+66uJ35o3zks7t8d9uWnuONRkMWAhotrHgIWI6hcDFgBAUyrI8fM9O3yvK8ObfVX+g6+irQVnMtk2xBktzREDFiKqfQxYiKh+MWABADSlwcH4KE+EZxasyisKTvROT0Zr9GJ9ymwXKmQnkm1DnM8yt2PAQkS1jwELEdUvBiwAgKbX55TP8qzxN3gy/FdXjt/mO+GUWbwv7dxxwNUsQfqR5koMWIio9jFgIaL6xYAFANASus+/47h+EZ7nyU2Xuar0JVcF6/Sb6inzBtu8uTbbh7iiZW7FgIWIah8DFiKqXwxYAAAtZUnH+tP0ov2Fngz9gjPxP64K7jHDFXNbZ1+ZQ3AZssyVGLAQUe1jwEJE9YsBCwCgJV2ycMMJeWd9h17A/61+Y7264EwGA7mtyaLavNnmts6NjwELEdU+BixEVL8YsAAAWpY5CHfJRetP65VB1pfh51wZ3u3LaNpX0R7fmUjOZzEL7Qe/Iad6xICFiGofAxYiql8MWAAALc9czdJrb3yRr4Ilvgw/5cnol3phv7c/NxMXsuZsltnelFOtY8BCRLWPAQsR1S8GLACAtuLKjS8s2MGVnh2ucFVwp6+inUs7t8dm+1D11s6zvUGnWsSAhYhqHwMWIqpfDFgAAG3FbBvqvfAPZ+SdsMN3wr/2ZPAt88a74EzuMYtuM2Rh21B9YsBCRLWPAQsR1S8GLACAtiTEbcd4naVzfVl6tSeDjxaciRv1m++Zgdy25I5D5k35g9+o05GMAQsR1T4GLERUvxiwAADaXk/nPU/OW5su9WTwP54M7/CdiW392Zlk0FI9o4VhSy1iwEJEtY8BCxHVLwYsAABofYvKp3hi7LmujAb0G/I1ngy3+arypzsN+cpsG2LQciRjwEJEtY8BCxHVLwYsAAAc4HIx8wS94L9Yvxn/gK/CYd2mgjMZ9+e2HnDHoSD9SIcTAxYiqn0MWIiofjFgAQBgFj1dax/rO2GnK8NPuar0M/3mvOw7UWxu7WzerJsF+v3fxNPBxoCFiGofAxYiql8MWAAAeAjLLh470bVLz8+rsSW+Gv+sp4Lf9+WmkyFLdcDClqHDiQELEdU+BixEVL8YsAAA8Ai6RXhynzP+MlcG7/BVeE1BTfxa/3qPWaD35WaSN/APflNPjxQDFiKqfQxYiKh+MWABAOBR8sS64/Nq00vyqvRuVwW3eDKsFJzJPebNeyE7FftOJXkz/+A3+DRbDFiIqPYxYCGi+sWABQCAgxLPzzt3n+Nmw5yngn/0VeU3fc5U3J81t3Sein0GLI86BixEVPsYsBBR/WLAAgDAIeqzNz3HU6W3ezL8hu7n+g38TF/WnNGyJbm98/3f5NMDY8BCRLWPAQsR1S8GLAAAHLJ4fm+2dFKPGbTYwTJPhkOuDMf0G/qdBacSm9s7s23ooWPAQkS1jwELEdUvBiwAABwB/TJ4kmuHOdcO/k6/kS/qN/WTy7p26kX8tnTIMtsb//aOAQsR1T4GLERUvxiwAABwBPWIjU9xneA1ngo+U3AqP/GdiXHfiarbhrJTD3jj394xYCGi2seAhYjqFwMWAACOsGUXj52Yd8bOce3gNa4KPqvf1N/lynDv/jsNmcU924YYsBBRPWLAQkT1iwELAAA14onbju+RYy91s+NXuDL4hq8qJbOoH8jdq9/wm6tZ2nvIwoCFiGofAxYiql8MWAAAqLGurrWPcbPjGdcu/Zsrw5/4Ktqk22ne9Jva9YwWBixEVPsYsBBR/WLAAgBAHXhi3fF5Z/KcggocV4Uf9uzox2a44DsTcSE7Efuq/bYNMWAhotrHgIWI6hcDFgAA6izvjD8vbwdLPRl8Xr/pv91zot3LunbHA7mtbXU1CwMWIqp9DFiIqH4xYAEAoAH6FpVPyatNL/Fk+Fb9xn+1n50cK6iJrWbA0i7bhhiwEFHtY8BCRPWLAQsAAA1i3uR7IjzTt8NFroqudFVY9FQwaW7pXF0QtPaWIQYsRFT7GLAQUf1iwAIAwBxwScfaJ/bK0qtdVfpnvfj/gacq25Z2bk+2DRWyk8ki4cELh+aOAQsR1T4GLERUvxiwAAAwRwgRH+PKDWcXZNDryXDYlVHJk+VtvhPFBWciNgfi+i00aGHAQkS1jwELEdUvBiwAAMwxebXp9F6zbcgO3+yr6Mt6YXBPwZnUi4TpZNBy/8VD88aAhYhqHwMWIqpfDFgAAJijzK2dPVWyXDv8sKuCW/RC4Z6CU4mXdu6I+7MzsRkSPHgx0TwxYCGi2seAhYjqFwMWAADmsO7z7zhuiT35NE+VLnKd4J/0IuGOgjO1w1flfeZOQ0lNum2IAQsR1T4GLERUvxiwAADQBJZdPHZib7b0Z54T5vvU1Gf0ouGnerGwd6Bz+/7FQ9PFgIWIah8DFiKqXwxYAABoMp4Ye26vLL3VVaWVvqqsK6jKHnO3oWY7o4UBCxHVPgYsRFS/GLAAANBkBucNHmUOwvXV+Ms9p/J+V0a/cGWw12wXqt5tqNwU24YYsBBR7WPAQkT1iwELAABNzLXDZ3pW0OPZpU/6KvyWJ8Pp/tzWuD+3Jb2aJThgoTG3YsBCRLWPAQsR1S8GLAAAtABXbji7IMd7XRl8yZPhb3WbC9nJdNAyOSevaGHAQkS1jwELEdUvBiwAALSIN1+0+TRfBS/wZOi7Kvi670SVgdy9cUEvLsxAwSw0Hrz4aFwMWIio9jFgIaL6xYAFAIAW09NVeaznBMqX4YcKavOoXmDcU8hOxEs7d8SF7NQDFh+NiwELEdU+BixEVL8YsAAA0JLi+Z6YelyfLNuuHP94XpVuLzgTU74zkSw2km1DyVUtsy1I6hMDFiKqfQxYiKh+MWABAKCFeWLd8Xm16dl5VbrYl9Gn9SJjk7mlc39uJhmyNHLbEAMWIqp9DFiIqH4xYAEAoE3kM5te4snx/6cXGqt9Gd7lyWhXcseh7HRsbvFc7zsOMWAhotrHgIWI6hcDFgAA2kR39/Kjey5Y+1i9yLjAk8H7XTv4jifDSV+Ge8wdh+7bNlSfq1oYsBBR7WPAQkT1iwELAABtqKCCZ/TK0qtdFX7YU8F39eJj7xVde+K+3Ezsq/qczcKAhYhqHwMWIqpfDFgAAGhjffb401ynVPBk8I0+Nf1r34mm+rJTsdk6VHAmHrBQObIxYCGi2seAhYjqFwMWAADanLmtc0GOn1+wKwVPBde4qlTyncq+6pahSs22DTFgIaLax4CFiOoXAxYAAJDIv/y3p/eojZZrB1fqRUnRk+WtZghi7jpUi6tZGLAQUe1jwEJE9YsBCwAAuB9za2fP2niRJ4Mv6sXJ/+nKfrJImY4LzlR6Rcvh33GIAQsR1T4GLERUvxiwAACAB+nNlk7qFeF5voy69aLkalcGaz0ZJtuGzNUsZuBiFi4PXsw8+hiwEFHtY8BCRPWLAQsAAHhI3effcZwnNi707PBtngy/6svwLrNYuaJrd9yXm07vOHRoV7MwYCGi2seAhYjqFwMWAADwiJZdPHaiKysX+Kr0QVeGP9ELlshX0c5CdjJZvFS3Dc22uHnoGLAQUe1jwEJE9YsBCwAAeFQGRXxMb/aep7vZ6FW+M/EhVwXfd1W4a6BzW2wGLQe7ZYgBCxHVPgYsRFS/GLAAAICDdon4/XmuPe7mVek/C87Ez30V7VvauSPuz22J/Ud5xyEGLERU+xiwEFH9YsACAAAOiV6kHJd/5dg5vgrf4snou64KpzxV3uGrSmwOw/WdSrK4efCCpxoDFiKqfQxYiKh+MWABAACH5bJF68/yZZB1Vfg+vYhZ7clwsi83oxc15hBcM2SZbdHDgIWI6hEDFiKqXwxYAADAEVHoWvtEzxp/g2sFn9YLmR/ohU3Un52JzdahvuxUstA58I5DDFiIqPYxYCGi+sWABQAAHDGXLNxwQp89/jS9mHmDr4IveDIc68tO7zIDDbNl6MBtQwxYiKj2MWAhovrFgAUAABxxfa8pn+I5Gxd6VunthezUlzwV/KHgTCVXsxSy1UNwGbAQUe1jwEJE9YsBCwAAqBlPxMf79qZFeVX6gCvDm/ucqU3mANyB3Nb4TX8ex64q7WbAQkS1iwELEdUvBiwAAKCmus+/47iexfc8uSDGOnwZfdyV4T3m8NsrXrVXL3qC3b2q9Pb0P1oXeqHFgIWobWLAQkT1iwELAACoGz+z4QV5y9zWufz5/uyWuzwZbMnL4K/Sf1wXeqHFgIWobWLAQkT1iwELAACot/muXXq+7oOeXVrh2sHl6dfrQi+0GLAQtU0MWIiofjFgAQAADRDPv3TR2md6IliYdybPSb9YF3qhxYCFqG1iwEJE9YsBCwAAaCt6ocWAhahtYsBCRPWLAQsAAGgreqHFgIWobWLAQkT1iwELAABoK3qhxYCFqG1iwEJE9YsBCwAAaCt6ocWAhahtYsBCRPWLAQsAAGgreqHFgIWobWLAQkT1iwELAABoK3qhxYCFqG1iwEJE9YsBCwAAaCt6ocWAhahtYsBCRPWLAQsAAGgreqHFgIWobWLAQkT1iwELAABoK3qhxYCFqG1iwEJE9YsBCwAAaCt6ocWAhahtYsBCRPWLAQsAAGgreqHFgIWobWLAQkT1iwELAABoK3qhxYCFqG1iwEJE9YsBCwAAaCt6ocWAhahtYsBCRPWLAQsAAGgreqHFgIWobWLAQkT1iwELAABoK54TfXSgc2u8rGt3svh68IKMiFonBixEVL8c5+bkoxBD1y5ePCyF+MLx6R8LAAAArcdzgvf7KtpprmDxnQldOVmEPXhhRkTNHwMWIqp9tj2qW5UMWIQY3pbJDH8+kyle2N19x3HpHwsAAACtp88OXuOpYLWvKlHBmYwLevHlO5UHLMqIqDViwEJEtW4klvL6ZLhi26P7hCj+SH/9CiFGzxwcjI9K/1gAAABoPQNi41M8Nf4GV45/Km8HP3ZlsLk/tyVe2rk9WYj5ylzRMttCjYiaLwYsRFSbzBUrSt0QS7lGfz66TcpVdwoxdF0mU3yLUquenf5xAAAA0LrM/5u0bMHYib0iPK9Xlny94LrWVeF4wZnc5TtRsmWIbUNErRIDFiI6ko3Etm2qbgnSn+/Vr/HItofX6F//lRBDLxNi5eO6u5fX/M8ZAACAOaXQMf7EvDMuPFl6ayFb+ZxehP3aVcG+gdy2uJCdfMBCjYiaLwYsRHTkMkMVKW+Iq6/pkc36a9fb9vD7bLuYc5ziOekfAQAAAO3L/D9NXnbTi/Oq9G5XBrf4aiIqOBOx2TrUl53mjBaipo0BCxEdbuaKldXJdqDqVSvFSd1vhCj+t20P/4VSK05PX/oAAAAwhLjtmJ7Oe57syrHX+yr8b19Ff3BVuK+QnYgLTiU9m4VtQ0TNFQMWIjrURpL2bwcyH/XXN+q+LkSx4Dijz1u0aOiU9GUPAACAB+rNlk7Kq+BCVwZX6MXZVXph9iNPRlv7czPJQq16PktwwAKOiOZuDFiI6FDaf2egW5JDbIUo3qO/fo1lDb0jkxm1OzpGT0tf7gAAAHg0Cip4hivHr3BlcJ0nw/W+DHf25aZjM2wxW4i4ooVorseAhYgefeYqFTNYMVnW6B7bXl0RYvhn+nX8CaWKFwoxeEz6MgcAAMDB6r3wD2e4dpRxZTCoF2g/dJ1g90CnOQR3ils6E835GLAQ0aPNXLWyWneDuWJlj/78V5Y1+hkhhi4RYvi87u7lx6UvcQAAABwOP7PxWa497rpy/NO+M3mTXrCN+clBuFvTq1lmW9wRUWNjwEJED1/1qpU1yZ2BbHtkV3WwYl67xStse+WC888fZLACAABwpA2K+JjeC0tn9KiNF7kq+Kzud4Xs5HZzS2dzRYsZtHBVC9FcigELEc1edbCyWn80dwYa2alfq2UhircIMXSl46x43vnnJ1eszK++qgEAAFATvdlfnuTK4IW+DN7hyWiNJ8PN5pbOnM1CNNdiwEJEs2XuDHR9ctWK/vxeIYa/o/ugft12CnHdU9KXMgAAAOrFE+GZrhi/JC+DT3iydIPnRHd7MtzTn52J+5z9Z7RwxyGixsWAhYj2Vz1jxbwezTkr+muT+ms/FGL4s5nMkLt48fDT05cwAAAAGuGShRtO0D2+zx7PeKr0EVeGPzG3dTbDlYKTbhtKbu082+KPiGobAxYiGkm2A5mtQOm2oF366yXdct2lixYNnbVgQfHE9OULAACARhucFx/l5cae69qh68rgfz0Z/rE/Ox0v69qlF3jTsc+2IaIGxICFqN2TclWs1M364xr9+ci4ZY0OCzH0XtsezQix8nHpyxYAAABzzZUL952Qd8Y68qr0AV8G1xecqTv1Im/GHIRrBi6+U3nAApCIahcDFqL2zFypYs5YuTG27RHz+QYhhm7Rr8ePC7HiYiGKT0hfrgAAAJjLurrWPqY3WzrDl9FL86r8lrwcH/VUMNln7jSUNVuGKun5LFzVQlTbGLAQtVcHbgcydwcq7tOvwTv1x49mMisXL1583ZPZDgQAANCkusW6M/Nq08W+HP+071R+pRd6+5Z2bo/NXYf85I5Dsy0KiejIxICFqD0a1pmrVtbEjnNLMmTRX79LiOGvCjH0JimHzk9fngAAAGhm8bx4vq+CF+Rl8FeuDIdcGfzOV9GkWfwV9OKPWzsT1SoGLEStXvXg2jXJliDLGtmmWydEcY3+Z/9PiOGFQtx2fPrSBAAAQCswizpPrDtziQpe4Nrjrl7wfdmVwQbP3G0oOxkXkrNZzJCFQQvRkYsBC1HrZs5WMVuCzCG2N5qv3au7SYjhd0q54gIpR87u7l5+XPqyBAAAQCvqFnec7ImS5crxQVeGN+vF3+TS3LZ4WdfOdDFohixBukAkokOPAQtRK1YdqtyUJERxq22v/qlljfyHEMPd5pyV9KUIAACA9hDPdxduONu1S2/UCz9zW+ffFrKTFVeFu82WoYIzGfsOV7MQHV4MWIhap+rVKmYrUPUg29EZIYp36dfYN4UYfnMms+J5Cxbcfmz6MgQAAEC7WdKx/jRXBi8syPFLfKfycVcFP9OLwT0Dua2czUJ02DFgIWqdqrdelvKGWIjhCcsa+aptj7hCDL1MiOVnpi8/AAAAYN68Hjl+fq8svdVX4XDBmdxkzmYZ6Lw37s/NJLd2fvDikYgePgYsRM3dSDJUcZyb00Nsi5F+TX1XiOI/W9ZKxRkrAAAAeAjxfE9MPa7PDnOujD7tyeCXrgymPSfa5atKcltn3yk/YAFJRA8dAxai5qy6Hci2V5tf79Vf26pfS3cKMfw/QgxdIsTqpwhx2zHpSw4AAACY3bKLx05ckgle4FvBa10VftB3wttcGc70Zaf1YnEq9tk2RPQoY8BC1HyZ4crq2HFuSYYsQhTv0F//tJQjl9n2ygWOs/zU9KUGAAAAPHo9YuNTPHs878nof10Z3KkXjDsGctuSrUPmIFyzgOSOQ0QPFQMWombJHFyr1A3JLZeFGNkj5fX36I83WNbKv8lkVr4gfXkBAAAAh65v0Z2n+DJ6aV6F73ad4Da9WJwuOJN7PFVOtgyxbYjooWLAQjT3M1esmLsCmS1Bq/bpr80IMfxj/fWPCTHqZLPXndHdvbzmr1sAAAC0EU+UzvVU6SJXhe/z1eQ1eRlsMFexmCtaChyCSzRLDFiI5nbmzkBrYqVuNp/vtqxV37asoQ/pX7+ho2PofG67DAAAgJp6iwhP7rU3Sr1Y/IQnSz/vc6amdXF/bkv1jBauaCFKY8BCNBczV6uY7UBmuGJZo9uEKN6tXysrFy8e9qT82pPSlxIAAABQe5cs/MEJvhM9y3OCpQUnGnJlGJnBSiFr7jRUSQ/C5TBcavcYsBDNrcx2oOodgqRcHQsxvFl//SYhin/9ylcOL+zoGD0tfRkBAAAA9fWmbOkMT4136QXkuz0ZftVX0W9dGe41V7MUslPJApNDcKl9Y8BCNFcyQxVzZyBz5Yp+XZQsa2REv04+IMTK1+mPT01fPgAAAGgWPfam5+SdsONSse7cwXnxUemXm96yBbcfmxfjL3Pt4O88GX7LlUHZc6J91Vs7TydXtTx48UnU6jFgIWpsI8mVKlJen/zatq+fFqL4u0ymeJVlrey84ILVj01fNgAAAGg2vhO9Qy+2bnXt8MOXi/Jz0y+3BCFuO6bvwvGneSJ4nV5M/rsrg7VmsGIOwfWdiWSxef/FJ1Grx4CFqHFV7w4k5Q3JR/21DfprX8tkVi4zt11+4Qu/dFL6kgEAAEAz0gutT/ZnzWGw03e7MvxUXkbdvXb4ou7z7zgu/Y80vbd1rX2MKzdc4Mqxd+hF5f8WslM/cGWw2VzJYrYOcQgutU8MWIjqnxmqXJ/cGchsC9Kf3yXE8Df0a+E9lrVSdXR8lXNWAAAAWoHnhP9gziZZ2rkjWXTpBdivPFX6ZN4JO7vFujPNcCL9jza5eH6X/l4KHcEzXBW6ebv0TU8G44Xs5G5za2fzGFS3DXFVC7VyDFiI6pW5SsW2VydZ1sheIYpmO9DPLWtoUIiVL7744uKJg4ODLbM1FwAAoO35TjBoBgtXvGpvPJDbqhde5dh3wk3643fzKviML4PsoLjtmPQ/3hIuF797Qo/aaHmq9JGCmvixq8Ld/fp778txNgu1egxYiOqT2Q60Oj7guf4b3Wf06+DSjo5rn5G+NAAAANBK9ELrA2aLzEDnvckCzJxN0p+biZd2bo89J9rSpyrXeLLke3Z5wWvFusel/7WW0Gdveo5nB0tdGX7OlcH3fFUu+aqiF6AzceFPZ7RwxyFqpRiwENUyswVIqRvTOwMVt9j2yM/1xy9b1tA7MplvvqS7e3nNX28AAABoEL3Qut+AxSzAzFUcZstMITsRF5wpsxC725XR/7pO9Mb8K8fOaZXzWQbnDR7Vmy2d5MoNZ/tW8Fpfhld7MrwrL4NdyWPgTCYDJz8ZtDxwoUrUjDFgIapF1e1Aq9KP1+/RX5sUYmiVZY32ZzIjz1q0aOgUhisAAAAtTi+0HjBguS9zFYf5ujkM1nOisv74HU8GV/XY0RsvW1Q+K/2faAnVQUvpAtcOrtSNuDKcMN+7OZvGDFq4moVaIwYsREc6M1Qxz2lz5Yr+fItlrfq2EMV/zGSKr5Jy+EnpywAAAACtTi+0HnLAsj9flfWibCpe2rUz9mS005XRza5d/mtfji3uc1pr0FLoGH9iXo29Nm+Pf8ZV0fcKzuQ6VwY7zaLUZB6L2R4jouaIAQvRkal6xkr1lsvX61aVbbv4I/38/i+d19ExyjkrAAAA7UYvtB5xwGIWZeZqFnMlS59jhgzRdlcFGz0VrNIfr3Tt0vMHB+OWuROCuZplQGx8iifKVkFG/08vQn/oyWCH+f7N1iHzeLFtiJozBixEh5cZrJhtQNUtQeZz/fWS/viFTGboNYsXDz/dcZafqp/286vPfgAAALQNvdB6FAOW/QWxOQS2Pzuj//Pb9OfRTt0vXRV8yVOlty3JbHhB+j/bMvzMxmfl1bjnydLXCs7EuoJenJoDgM1BwOZxm/1xIpqrMWAhOrSGk4/mqhXHuTmWco3+fGRcN6K//n7bXrnovPM+9Zj0KQ8AAIB2pBdaBzFg2V+UbJWpHoY7meSraJ0vo4+79oaMOTS2u7s1DsI1Ll4wdmLBGheuDD6WV9Gtrgru0d//1v2HAZuPsz9ORHMtBixEB99ILOX16VCluLs6WBn+gRDFT1rW0EVKrTg9faoDAACgnemF1iEMWKqZ/545m6U/tyXZQlRwJsf112/N2+EHeu1NizwRH5/+a5qeJ9Ydn3cmz8mr4ELPCd7pyuB63WQhGbKYOw2Zq1nYNkRzPQYsRAdXdUtQ9QDbkViI4V8KUfyIEKNOR8e1zxBi+cnp0xwAAADtTi+0DnnAcmDmKpbkjjvZKf159Hv98auuiq7stcNFbxFhS70B7em858kFGbzelcGnXVX6mf7+dy7t3HnAHYfMY8Idh2guxoCF6NE1kgxVzHYg/ZzdZ9ur7xRieLkQK94sRPG56VMbAAAAuI9eaB2RAYtZuJn/neohsBWziNvryqDk2tEXCjK8pDdbero5PDb91za9ZQtuPzafGX+eXqT+pSvHR10Zbig4k9OeCvaZIYu5oocrWmjuxYCF6OGqHl67OjnAVrddiOFNtj18s/749+acFa5YAQAAwEPSC60jNGCpZu6uk9zSuXO7/jhtbuscuSr8oaeCz/Sq8TdcLsaekP6rW8H8Pmf9WfnMpgtdGQ0UnPL/uDL4o+9MJNumzOM622NE1LgYsBA9dPvPWrkhFqK4y7ZHb7bt4pVCrLQWL77m6d3dy1vmbDEAAADUgF5oHdEBy30FyZUs/dnp5I47ngwm9ddXu3b0d3kn7OxZfM+T099CSzBntHjW2CvzdukDnoy+W3AmJ/vSuy2ZBS3DFpobMWAhemDmihXznDRbgmx7ZItljfxciOL/CjF0WUfHNU9Mn8YAAADAw9MLrRoNWExm21Al2S6THgK7y1XhjCuD73oyeFOfPf60SxZuOCH9rTQ9s1DtEZWneCro8WX4NdcO79bf6zb9fe/dv3Wq+jjM9lgR1SMGLETVzOG1yTag9NcjyXYg3bAQQ2+Scuj8rq7V3HYZAAAAj55eaNVwwHJfZshits2Yg2B9Vd7jO5Vf+DL8XF6F3hK1/hnpb6cl5NWm0z2xcaEry72+DD7ty+gXrgz2mCt5zGHAZpE722NEVPsYsBCZzFkr5gDb6t2BimP6eflVIYpvymRWLl68+LqWusISAAAAdaIXWnUZsByYGTKYrTOuCnd5qvzdPmfqQ3lVurg3O/V0IeJj0t9aS+gTpT/zZPRO1w6Krgzv9pxot3msB3JbkytaZnt8iGoXAxZq58wZK2vSrUDJYbbjQgx/37aL/2jOWeGKFQAAABwWvdCq+4DF/PvM7ZzTrUM7+3IzFVeGP3VlMNhrlV7RLe4wd2mYX/0dNrfu7uVHFzpmnuhmSnZeP9auCn/kqmBnwZncZx4Htg1RfWPAQu2Y2QJkBirVOwQJUdypn4d32fbwv1vW0EVSXnN2V9enGK4AAADg8OiFVt0HLPszg4W+3Ex8RdfuZODiyfAu3TV5Nf6uvNp04YIFtx+b/jab3qCIj8mr6Nm9KnxDXgX/WHAmbnRVMGW2TfXnturHg21DVI8YsFC7Vb0zkHnO2fb1+vPRO4QY/qwQQwXbXr6Aq1YAAABwxOiFVsMGLPcVJVez9DnmfJJynFfBH1wVfq7HDi7PO+PPS69oaRnmDkquvemNrhr/gieDuwrO5L3mltb9Wc5ooVrHgIXaI3O1itkOZLKskT36axuFKN6Syax8jxDXPjd9agIAAABHjl5ozYEBS7ptyJlMF39mwBBNuDJcqxeBX/GsjRddecm+lrnbkNFzwdrHujJ4oe4dvqrcbO425DsTcSE7kTwWPkMWqkkMWKjVS+4IpFsVS2m2Aw3v0F//uf74Yf3ce6WUw0+aNy9uiS2oAAAAmGP0QmtODFgOzAxaBjq3xsu6dsaeU97iy/KI64R/rReEdv/COx6f/tZbgisrZ+ft8C98FX7Yk+GI/v437r/jUvVqFvOYBPd7fIgOPQYs1LqZq1bMc8txbjGDlW2WNfod/fV/s+0RN5MZfV76dAQAAABqQy+05tyAxSwCzfks5gDY6mG4k7GropIny98oOJWCa088f5kzeWr6LbQE8/3knbFOVwaf0pnbOm82PxezdahPPwbm17M/VkQHEwMWar2qV6tcn3y07dXb9Nc26OfZN4Uo5h3nxrPSpyEAAABQW3qhNQcHLPd14NUcvipP9Tmb/88chKvz868cOyf9NlrCsovHTnTt0vM9WfJdFXxBt6E/N3PALZ3ZNkSHGwMWarXMIbY3JAMWIYY323Zx1LKG3p7JFF++cOGalrriEQAAAHOcXmjN6QHL/szv0QxalnXtMXcb2uOq8DueDD7qOsFrXHv9M9NvpyV0O3ef2iPHFntO6b2eHa7wncodrirtMncbMgMXBi106DFgoVbIDFVWx0rdqLvBXLlSsqyh6/Vz62OWteK1Qnz1CelTDwAAAKgfvdBqigGLyfw+zRUt5iBYV4Z7PRlsdlXwnbwcf3+vVXqFJ6Ye1929vOaLxXoYHIyP6s2WTvIXj700r0rvzqvxW10VThWcyb1my5SJq1ro4GPAQs1c9fBa216tG42FGNkmRPEPQgz/Z0fHtU5Hx+hpQtx2TPq0AwAAAOpLL7SaZsBSLUgGC8ltjXNbzN12duqvr3VV6UbXCQYL9sYXpd9ay8g7Y+fkVelizw4/6auJ/0sOAc5tTRbK3G2IDi4GLNS8meGKuWqluh2ouEn3Fcsa8To6hl8oxBeOT59uAAAAQGPohVaTDVgOLEqu5DCDloHObebzDfp7+bQng9d5ufJz33be2sek32ZLcGXwwrwVvMucQePL4BeeE23uc6aSYZO5smf2x4jowBiwULM1kmwDUupmc8XKHv35Xfo5VBRi+AOZzJDNFSsAAACYM/RCq4kHLGFyt6HqtiFztyEzZJiY8WTw87wKPuFZgcqrTafXYwFZD2b7U88Fax/bZ296jidL/eZ8Fv29juv2JI+Bjm1D9PAxYKHmyLb3bwca1a3eq7+2XYjhH+nnz98KMfQyIVY+7vzzlx+XPsUAAACAxtMLraYesByYuZ3xQOf22DeDBlVeV3CmrndV6cO9dlm+ZlH5lPRbbgm92dIZrj2Wc1X4QVeGN3lOtGVZ187k51gdssz+GFG7x4CFmqHqnYEc52b96+F9ljX6M9se/pQQw922vaKlDjUHAABAC9ELrZYZsFSLYvP99Gen46Wd280dhyqujL7q2mHBE5te3J/b3FK37bxUlM7tlaXLXBX8t6+iX/jOZMk8DuZuQ+aqHq5mofvHgIXmbuaKFSnXJMMVyxrdqr/2f/r58k0hVr7Ntoeekz6dAAAAgLlJL7RabMBitg3tP5vFDBkmzJBl2lXB7zxV+rIrg15XVs5Ov/2W0Pea8ikFFTwjOXtGRZ/xZOku8ziYhbS5msX8fBm0UDUGLDQXM9uBzFagVfrX5u5Aw2a4Ym673G/bw89XasXp8+bF89OnEwAAADA36YVWyw1Y7itIziUxh+CaPCfc7Knyt30VfVb/s56+ReWz0oehJXR333HcEnv9Ak+V3q6//2FfVcKB3LZ4ae7edFHNkIUYsNDcqnpnoJvSQ2yLW3Xftqyhj+ouqg5WAAAAgCahF1otPGDZX3XbkLmapZCdrN7aWEY/KcjonQU7fNHlYuYJrfT/jnY7d5+qv+8uVwWf1f3MV+G4/p53mqt6zLah6hUtsz1O1PoxYKG5kDljZXVydyBzxYr+fEJ//Te6LwtRzGez152RPnUAAACA5qEXWm0wYDGZbUMTenE5nVzN4jsTuzyncrf++nW9svxWT5Sfmz4kLaE3WzrJtcNnemq8y1Xhh/Vj8GNPhjuqQxZztyVzNQtXtLRfDFio0VW3Ayllzlq5Xn8+vEF//XPmAFshis9duPCaljonCwAAAG1EL7TaZMBy/8ygZWnnDvPrPZ6a+Kmvpq7qlSXftUvPr8eCs5683NhzXRkM6L7kqug3+nvet6xrV2y2D913x6HgT48NtXIMWKhRmatW1iR3BjJXr9j2qvX6a0Uhht6byRQvNM+R9OkCAAAANCe90GrLAYtZaFYPgK0kV7bo9uiv/19eRf/oWYG6TN79pK6utY9JH6am1y3Ck31VfnmvDP8mr4JbPacS+Gpim/5addsUt3ZukxiwUH2rHl67Or1aZXSPEMWKEMO32/bwvwgxYl1wwZcfmz5NAAAAgOamF1ptOmCpZr53czXLQOf26pBBRutdGd6s+9ASWbI9se749KFqeoMiPsbPTTzVUxstX0Xv0t/rkCuDib7sTNyXm9GPB1uGWj8GLFTPqmetVG+9vMocYvsrIYY+ksms/HNz2+WurtUtM8QGAAAA2n7AcmDmbBJzPou5okN/fo/rRF/Jq9LbPGvslW8R4cnpQ9YSLhdjT/Bl6dW+DD7tyfDnvjOxzWwZGshtTQ7CZdjSqjFgodpXvTPQjbHjmJ/z6B79tbtse/haIYb/MpMZeVb6tAAAAABai15oMWBJM3cX2r9lyDwmvhNt118vuzK41rfGXmuGEt3n33Fc+tA1PXNb5/5ceJ4vgytcWR71ZBjqx2C7/r6Tx6G6bYhBS2vFgIVqV3U70Kq0kV36axO2PfxdIYb/XoiVL7744uKJ+unQMndsAwAAAO5HL7QYsDyoKLmKw1zNsVQ/Lr4zMe3awXdcFf1Tryy92gxa0oevJXgiPLNHlCy94P5LV4Zf8VX0x+odl2aSYdPsjxE1ZwxYqFaZ7UDmqpVbYiGGtwpRXGNZK/9W12nbK56ZPhUAAACA1qUXWgxYHja9IM1Vb+2sP5/0VGXYVxPv8uXYYjOYSB/GlvC2rrWPyVvjwrfDD3sy+LarwnGzbWpp5/Zk2GKeJw9+fKi5YsBCRzZzxorZDmQOsbXtVVOWNfpLIYb+u3rb5a+21DAaAAAAeFh6ocWA5REyW2X6slPptpnJbb4zEbgyWOPJ8psGVPTsQXHbMenD2fTMnZP67PGn6e/v9b0y+HdXhmsLqrLnvm1TZsjCtqHmjQELHYlGzBYgXfUOQUIU9+qfa0n3TZ2XyVz7rGz2hpPSHz8AAADQHvRCiwHLo8wMWAY6t8XLunbpz6Ndngx/6srwak+W/Hxm/HnpQ9oSzG2dl9jjC/Iq6vNU5SrPqfzElcEu8zwxd12a7fGhZogBCx1++69aqf4cR8b0175mWUPvEGKllctd8/j0xw4AAAC0F73QYsByUJmrN8wZLRNxwUnuNrTTdcKf5FX4EVeOv6o3W3q6uR1y+vC2hB5703Pyavwtrh0UfSfaVFATe/pzM8mgpXpGC1e0NE8MWOhQG022ASl1g9kKpD8fKQtRvN22h/9Ff+w4//zlLXMAOAAAAHBI9EKLAcshtH/bUHJLYyfa5auo5MroF74K/9mzxxcMzouPSh/iVjDfHOzr2uMZ/b1/xJPRL10Z7jUDJjNo8hXbhponBix0sI0kmaGKlGawUjRbgu7OZIqfs+2R17zylcVzurpWPyb9UQMAAADtSy+0GLAcVtUFq7nbkHkMC05lgyeDL7oyGjCDFnNwbPpQt4SCHD/ftUsF/X1/xlflb/sqnOrPmqtZ9t9xKHjA40NzKwYsdDCZOwPdEDvOrcmv9dd+pfvC4sXFt5qfp2ih86cAAACAw6YXWgxYDrsoPQC2Eheqi9fYVeHvPFX+jCfLr/NE6dxlF4+dmD7kLeEKWTlbf389nix9TX//f3BluK2QndSLd7NtyGyd4oqWuRkDFnrkzOG1ZjuQOWvFtlfvtKxVof76rUKs/OtXvnL4+fPmDbbSFXoAAADAkaEXWgxYjmBmy1B/bqvZNmQGDSXPKf88L4Or9ML2oiUdm09LH/aW0J/b8Pi8Ci50VXClq8KiK8PN5nnUn51O7zY0+2NEjYwBCz1S5qqV6lkr+vNdtj3yQ9se/qBlrVRSjpyd/kgBAAAAPJBeaDFgqUHmahazbSi949CkJ8OhvB2+u0eUrMvk3U9KH/6WcJmz/izXCV6Tt4N/KqjJNb6qrEueU7ltejE/9aDHhhoZAxaaPXPGihmqOM7N+vORrfpr37esoauEWOnb9tefmf4oAQAAADwUvdBiwFKTzLahSnIuSUF/dFW425XBuP64Mu8ESz0x9ty3iPDk9MfQ9Mydk/Iv33R6r12S+vv8uKuCX3qqsi35/s1hwPojV7XMhRiw0IFVD6+17dX7D7DdoQv0z2ilba9cYq5Y6e7m7kAAAADAo6IXWgxYapwZLvTntuxf2M74qvwLVwbXmlsf94iNT0l/FC2h67y1jzHDI1eFrl7Mf9XcXak/uyX5/s0ZLWaB/8DHh+oZAxa6r+pZK2tipW40n08LUVyjfz5/lckUL8zlrnl8+uMDAAAA8GjohRYDljrlJ4vbKf1Yb00+Fpzyz/LW+P/z7ZLMO2PnpD+SlnDlJRtOcGXZdu3Sh10ZXO/L8C69uN9hDsE1C3xzdQ93HGpEDFioesaK49ySXLkiRHGTEMPf1n1S171w4RoGKwAAAMCh0AstBix1a/+2ocnkao6CM7HHk2FF/7NbPFV+ty+jly67OD5x3rx4fvrjaWrd3XccZw729dX4y1279D5PBt92ZbDZVeG+9PtPtw1xVUv9YsDSvpntQKPplqCknfpncZcQI5/SP5vObPa6MxYuvOaE9EcGAAAA4GDphRYDloYUxf25mf2P++6CM3mH/rjCV8G7emT00noseuupoNY/wxdRtyuDT7ky/Kn+Xvdd0bU7eQyqQ5bZHiM68jFgadeqV63cnHy0rJHf2/bIfwqxMq8/vuj88zlnBQAAADhseqHFgKWhVa9qGciZbUPTsSfDtXkVftKVwet7c+F5yy4eO/H/t3cvYJKddZ34JxjCzXAVkZtGBHSDuEoQkjDp6jqnqmeQAK5mJMl0nXOqezKCa1S8/NFFHRT/3l1FkXXXO4ouEcjcCITLBkURNQpCBI2GJDPTXedU3+aWTCYkqX3f6mK5zAAhTM10V30+z/N9eroGQ/p0Fc/z+/peBr+qdW/L+TedU6Tls8Ng//15vfO2mcbKvxSN7koRz6hpHu6vaDn5M5JTFwXLOGX1jJV45XI8Y2XPPeH7T4TX3z05uXNHrXbNtw5+PQAAwKkQBi0FyxlOfP5x6O0XLGn3vvDaQsg/ZGnn17N6NbV18+IjB7+udS8O8630wOOKifLZ7fpiu5WWb86SshO3TcVzaeKzKFLbhoYXBct45DO3A+3t1Wq77q3Xd99Yr+/5ifDnC2u1a76mVttx9uDXAwAAnAph0FKwrImsHvgarzSOq1ni17xRHQgD8e4srX4uS+ZfON3sPGLwaxsJV268/THT9f1JVq9+Jk8X/qpIF+68atNd4ee/o39OjZJlGFGwjHpioZKm1/cPsQ3f3x2e999NTu78rXp995UbN77laYNfCQAAcKqFQUvBsqbS7d82FH8n7eZSP+H1O/tFS7284orG/meM0oqWKEsWn5zVqyzkz4u0+niRdOPBv/et3rS0PFjRcrJnJV96FCyjmrhaJRYr8Wagen33kfCcbw25tlbb+fJa7drzBr8KAABgWMKgpWBZk+n2y4V4COzs1KHw55XDeVJ9JEur32ul3ZfNNG5/0uBXOBJmp/Y9tp3Mn1+knZeFn/93sqS6OT6H+AxWz2axmuXURMEyetnTz+pZK++O24EO1eu7d8ZiZWJi57dt3Hjd4we/BgAAYJjCoKVgWfPp9rfN9H9HSXWoaCy/O0vLX2pNli/Na53zTseAfLpsv+DGB+eN/ReGn/P/C9kVfv7bZqYO9rZvvtuNQ6ckCpZRSpJc178ZaPUQ272LSfL268PzfW29fu13vOhFb3rM4PEDAACnQxi0FCzrIPF3FG8bil/bjZX7sqQ8niUL78vrCz/WmpyvXZ6UTxihouWs9sb5x08nZbOVlr+SNcp/mmmuLBbpwvF441C7uaxoecBRsKz/xANs395fsRLPWwnfHwrP9N/C3/1hvb7nOzZvvu6RGzbseNDg0QMAAKdLGLQULOsosWSZnTra2zYVf18Ld+VJ9W9ZWu5uNcofyZLyWwa/1pGw/YK5h2+tH/jGIum8uGgs/Wz4+d4fi6X+IbhNh+A+sChY1ntWz1p5Zy9J3tWr1XYfmJzc8z9rtZ2X1+tv/c/N5vUjdRA2AACsK2HQUrCsy8RBeaU3O3Wkl6XlvXlj4cNZ2n39dFplW5O55+S1Wx86+BWPhCvT25/WmjyQh5/1D4t08aY8Xbj3qk3H+j//6hktJ3tGcmIULOsze3tJ8s7+dqD453p9zycmJ3e+o1bb9VPh6/MHjxkAADiTwqClYFmnWd0utNRf1RIG53uLdOFollafyBrV/2ylZeOyqX2PHaFtQxsuu3Dfw+JBuHlS/kj4ef8mfD2cN7p3x1uGPuM5fNYzks+NgmU9pV5f3Q4Ubwaq1XbfW6vtuSO8/k/hz79Yq71t4/Oe9yePrNV2nD14zAAAwJkUBi0FyzpPLBji0Bx/h6srOpY7WVK+M0+6r75ysnrBqK1maTXmvjZLui/M6+VP5Wl5XZFUi7PNQ72Y1ZKlPOEZyaeiYFk/Wb0ZqNm8of/n8No/1Gq7f7Ve3/tdExN7/9OOHc5ZAQCANSUMWgqWEUosW+IZLe3GSvi++4l2Y+n3W2lnJq9V33rlxttH6laRK2pzX5VPzn93+Ll/J086N4avC7E8iFuH4vapwmqWk0TBstazesbKu0KujytYjtXr7/iX8Po1Id9Xq+16+uCRAgAAa00YtBQsI5Vuf7tMuxkLlqo30zh4KEur2/Kk+8etye7LionuM67efPNDBr/+dW/m4o+fO1PrfHOWzE/nafkH4Wc+MNM8eO/qjUurty7FZ/LZz2ico2BZu4nbgeL5KnFL0N77wmuHQv5Pvb7nFbXa7m+q1a599IYNvbMGjxQAAFhrwqClYBm5rG6RiUXL9k139a4KCYP1cpZ0byjShV8Pf/fdWy+57YmDt8BIiKtzWumBi4qk/MF2Y+VPs7S6ud1YDO/rY4Mbh072nMYxCpa1mNVVK9f3Go33hu/3HK3V9r4zvP7TExPXvrhWu+ZrBo8RAABYy8KgpWAZ6XT724ZiydBu9IuG5azRfUeWlq9speVFlzcWnrRhw+ic5XD15vse0po4cNF0Mr8jT8r3Fc3lMhZN8WyaWCysntFysuc0LlGwrJ3EFSvXDbYCXReyeyU8m4+Fv/vjiYld37W6YgUAAFg3wqClYBmDxJIhDtbxa5EuHM0b3duyRnVDllY/sXXj/PkbRujAzC3n33ROlux7ctacmyoa1euKtHvr6rapWDIt9gunWDSc7DmNfhQsayOf3g4UD7INr3VqtV1vqtd3XxnPWbn44p3nDh4dAACwXoRBS8EyRom/69mpQ72rNt81WNGx/C+tpHxDKy2vfFl64JmDt8XIKJK55xRJ9f15Uv5xkZYfypPqrtmpO3qzzcO9Ih3HG4cULGc2n74ZKEneGV+7Nbz21omJXa+amNhZv/TS3Q8fPDIAAGC9CYOWgmXMEm/Xib/zYrCqJUurY1na/du8sfjT7Ua3NpuUTwhD9zmDt8i6t2ND70HtZPH8dlq+sn99db06EJ7BsZnGwfDzx6udl8JzGZcVLQqWM5F6PRYr1/XLlXp97731+jsWa7VdN4Zn8csTE9decsEFihUAAFj3wqClYBnbLPQLhtmpw7FkuXtm6tAn8rT8yyzp7mg1qo2zF+577OBtMhK21fY/Ja/Nb87q5U/mjerdeVIdv2rz8fAM4pXOcdvQyZ7RqEXBcvoTy5XVQ2zjtqDw2r+G739lYmL3C+N2oKc//XUjc6sXAACMtTBoKVjGOnGLzOrVzts3392bnTray5PuLVlSvjGf7PzA1lp54ZZa9ZWDt8u6t2PDjgfltc55WaPzPeHnfMNM8+D780Z3IRZN8TMQn8PJn9OoRMFyuhLLlE/fDLT7vsnJvR+t13f9aa2264dqtbd+8+DRAAAAoyIMWgoW6W8b6h8E21jubx/Kk/KuLClvDn/3u3my8J3f+6LFJ1924b6HDd4269727b0HF5csPbVodrZkSeePsqS6Zaa5cqzdjIfhroRnEM9nGcVtQwqWYWf18Np4K9DbQ/bcXavtOjg5uef9ExM7f7hW2/1NF174gfA56p01eDQAAMCoCIOWgkUGGaxmaa70rzXun03S6JZ5Y+Fvwt//bqs+d+VlG29+/OCtMxK2NG55VKsx/9wsnX9Fu7G0s0i6R+NnIW6bWj2b5WTPaT1HwTLc7O2fs9JovKdXq+05Hl77q5AdSbKrGX7+pw4eBwAAMIrCoKVgkZMmruJY3TpzR/i+vCdPF9/bSssfnq4fuHjUipaZl3z83Omk8+KsXr4+T7rvz9Pu/vAM7otFUywkVs9oGYUbhxQsw0hcrZKm7wl5V/x+pV7fe2Ottvv3w8+aX3jhnicPHgMAADDKwqClYJHPk3jb0GJ/RUvcOhRyPEuq/a20/Is8qYqsXn3DlvNvGpnbhvLarQ+NNygVjblNRb369SzpfCQ8gzuLxur2qbiiZf0fhqtgOXXZM9gO9Pbw57hy5bpP1mq7y/B3b67Xd19Zq117XrN5/SMGjwAAABh1YdBSsMgXTSwWtk0d7W8dypPqUBjS/zZPyj9opVXe2th95vYLeg8evKXWvS1brjknr1XfmtfL7Xm987vh5//oTGOl972b7xmUE/FslvW6mkXBcqqyumrl3YNVK7sW6vW9b5mc3PkDExN7LqnVrn304EcHAADGRRi0FCxyvxMPw40rOa7adCx83+3ljYUPtJLqtVl94SXt9Pan1Wo3nD14a617MxcvnNuq3f7crDH/o3laXj/TPPwfcUVLLChWz2hZj6tZFCxfXuKVy+/olyqrh9junQ8/zwcmJnb/5sTEW5vnn79jZFZ0AQAAX6IwaClY5EvKp85miQkD+/EsreazpLwhS8ufbNXmn7v9ghtHZjVL/Fmmm52vnknLi4rGUixa3htyJP7s8cah1ZJlPd02pGB5YInbgWJiqRK3BO3p1Wq7bwuvva5e3z110UVv+boLL3zzyNyyBQAAPABh0FKwyAPI6o1DcViPh+BmaXVveP1jIW/KGws/0qrNbdz89JsfMnibjYTWC2752lZj/ruypPq1drr8D3Hb1FWbjn/6xqWTPqe1FgXLl5ZdIaurVhqN936qXPnX8Hd/EvJ9SbL7OYMfEQAAGHdh0FKwyJeRbv98ltXDcJd67fA1Xu0cXvvD1mT50ivr81932YX7Rur/s59v6pyXJZ3vz+rlO7O0ui08g8PxGcTiIh6GG5/JyZ/VWoiC5f4mHmCbJO/sp1bbfXxycs9crbbrfRMTu3/6kkve+pwNG3pnDX48AAAABYucmqwWDCv91Rzxa7u5vJgl1d9mafeX8kaZxvNMBm+5kXB5cssTion5b8+ThZfnSfnWrF6V/ZuWws8en8XaLVkULPcvq9uB4r9nrbb7npC/Ca+/enLybbXwczx1y5Zrhv7MAACAdSYMWgoWOaWJq1iuCu+nmalDvSyp9hWNg38Rvr5qa60zOX1R56sHb72RcOXG2x/Tqs9/R1af/6Xws7+rSKv52amjve2b7+6XLatFy1q6cUjB8oUSV63Ef7c0fU8sVu5Kkus+WKvt+u2Q6Xjt8uDHAQAAOFEYtBQscooTbxpa3TaU91e2HLonS8qlLF24Jk+6s0Uy95yX1j40MtfYxoNw81rnvFY699K8Uf52npQ3z0wdPpgl1b39VS0h8falkz+r0x0Fy4lZXa0Sz1kZHGJ7Z/h33F+r7d5br++caTR2PsmKFQAA4IsKg5aCRYaQ1UNwY7kQ31v9g2DThZUs7X4oT8o/bqXz+csuOfDUwdtwJMy8ZOHcbFPnWeFn31o0ll6fJZ2P9T9bU3esnk1z0ud0uqNgOTGrZ62sbgfadbRe37MzfH1F+Pd8wUUXvXGkVlwBAABDFAYtBYsMObFsWT0ENhYtYcg/El5/XxjuXzudzH3nFRP7nzF4O46EHTt6D9qa3PacVjr/w1lS7Ww3Vm6baaz0P2Nx29Tqyp6TPafTEQVL+O8P+fTNQLFcCd93w+vvr9V2/UbIpbXaNV85+FcHAAC4f8KgpWCR05L4Pou37PQLhkb37jypDrXS8kOtevWa1kT327Zf2nv4qNzMEreU5LWVR+eT1QuytPrVIq0+Hp7BnUXavSf+/PFa5/g8PvcZDT/jXrCsbgeKCd/fV6/vPRa+fiLkD8O/10uTZNcTNm++bqSuFwcAAE6TMGgpWOS0JhYMs1OHe1dtOhZvG+q10+Wb86T6s1ZSvvzy+u3PGrw1R0JczZLVO8/K6uUVWVL9WpF0/zZ8PRYPwl0tOmLJcjoPwR3vgiUWK83m/+mvXgnf31Sv7/ntiYk9MxMTu7+92bz+EYN/XQAAgC9dGLQULHKGEs9oWeqfUZKl5X3htX9sNw7+cqtefVcx0X3G9gvmHj54m46E6Vr19DwpX14k5TV5Un0sb3SPxC1T2zbFM1qW+s/jxGd0qjN+BUu8GShJru+l6bvC93vuS5J33lar7Xpnvb7zx5LkL75lVFZNAQAAZ1gYtBQscsYSb9eJ1xnHlSzh+0/OTB1ezJLqI3nS/ZWsXk3NNBaeFFeBDN6u61zvrCtqc181k5YX5fXO1UVa7s3T8shM89B9RRq3DYX0V7Sc/FmdmoxTwRK3A+0dbAm6Lny/63h4/SOTk29/7eTkzuen6dse53YgAADglAmDloJFznBWbxyKg//2zZ/szTYP9/Kke1v4u91ZUu6YrneSLbWbRurQ0Sz5tyfn6fzmrN75mZnGwd1ZWpVx21T8HA73ENxxKVj29tI0rlrp3wx01+Tknr8J/73/vVbb3arV3vJNg38tAACAUycMWgoWWSOJW2TitqHFkOX+IbBZWu0Lr/1JvNZ5urn0zbNT+x47eOuOhNkLDz42TzsvytL512dJ+aF2c+VguxlvWzrcX9Vz6le0jHbBElerxGJl9Wagt98xObnz38Prbw7/nbMXXfSWrxv86wAAAJx6YdBSsMgaSrm6baixPCgCFuKNQ8tZUt0c/v5tWb3T3nrJbU8cvH1HwnSz84ii0X1GPAi3SBfenKXVSrzWuV+w9LcNrRZPJz6rB5JRLVjidqDVG4JiuVKr7ToaXntX+Hr1xo27viVuBxr8qwAAAAxHGLQULLJmE68zjgfBXrXpeK9Iq3uKdPH9raTz2izpvjCvVV8zeBuPhFi0tNKykSflT+dp960h/xELkXgI8GopEkuWL/fGodErWGKp0mj8n/52oPD9fPh+b/j68xMTO/9LrbZ3pN4jAADAGhYGLQWLrOF0+9tk4kqOdnOpN9Nc6WVJtZSl1d6iufx9RTL3nCtfdPAxp6MkOF22Xzr38LxZvSD8/P9/nnQ/kCflQt7ofnKmeahfjsTP64nP6f5mVAqWuFrluv51y6u3BL3zUPjnfrxW2/X6en331NTUm0dqKxkAALAOhEFLwSLrIrFkiatZ+gVBo3t4Zurgx/Kk2lmkC9935UT57FdeeN/DBm/rdW/LlpvO2Vpf+MZ2vfs9Rdr51SwtPxS3TV216Vh/Vc/qapaTP6cvnFEoWD61Fehd/YIlvFYlydvfWK/vumJi4m3/qdl84yMG/7UAAACnTxi0FCyyrhLPJIklwfdu/mS/dMmTxX/Iku5vZvUq25rMn79hw6hc6xw+n7XeQ4t037PzRvnyPCn/90zj4IeypLojFk0xX/ohuOu5YNnTP19l9f92T8je/wj/rN3h7362Vrt20pXLAADAGRUGLQWLrLvE92y7sdQ/DDdPuvdmaXU4S6p/aCXlz19Z7068YuPtj9ly/k3nDN7m61pvQ++sV16472HZC25/Viutvi9Lyr1ZWnbbzeVPxp9/9caleLXz/VnVsv4KlrgFKG4Hipmc3Htvrbbr0OTkzr8P/5zXpunui2q1ax+tXAEAAM64MGgpWGSdJt44tNCLZ5PE1RxZUt2bp91PxOIgS8tf6h8YW7v1oYO3+kjYuum2Jxb1ThJ+9p8qGosfiIXJtqk7ezNTh/ql08mf02dmvRUscTvQO3qNxnv624LC9zeF13+9Vrv2Oycm9jxjx47RWa0EAACsc2HQUrDICKTbP5tkdupw/9ad8P1y1lj889bkfB7PZ9lSu+krB2/5kZAli0/Ok85snlRvKtKFG4ukuxhX9MSiKV7vHJ/HyW8cWh8FS1y1Ev8zMbXa7qOTk3v/eXJy51vD3/1wrbbnmwf/WAAAgLUjDFoKFhmJxNUssWSINw3FkqHdWD6aJ+XHQt7QSruXzj7/liecjjLhdJm5+OPnttPyaa16eWWWVH+a16vbw3P4ZNwuFMumk28bWtsFy+p2oLcPvr7z3vDa4Xp9995abc9VExPXPrvRePejbAcCAADWpDBoKVhk5BLPJYnv6Vi25OnC/Ezz0LuzeudXp5OFF880Fp40ePuPhLx266Pbk/O1IqlelaflXxSN6kD82a/adHe/cFp9Jp9azbJ2C5ZPr1p5T69W23W8Xn/7DeH1n67VdjYuuuitXz34RwEAAKxNYdBSsMjIJr63282V/vXGedo9ktW7u/Ok/JE87UzmtZu+ZvAxGAmzSfmEIplrFo3yl7Ok/Pt249D+8LPeM9s8NChV4mqWtVawxDNWruvfDhQLlsnJvUu12u5/npjY+We12q7pNH3b4wb/CAAAgLUtDFoKFhnhdPurOOLZLDONuJqleyS8/ok87bwtS+a/N26xGXwURsL2S298eOsFc1+bJd0XZmn3l7K08+FYssSDgPtbh9LFXvxzeAZnuGB5z6BciduB4u1A/VUs+ycnd/7JxMS1V27c+Obz4+1Ag/9zAACAtS8MWgoWGYOU/YJhthkPwT3aK5Lu0fD6B4u0+h9F2p3J6p1nDT4SI6J31nRt3zcXaWcmT8o/ajeW/mMm/OxXbTreu2rz8fg8jp+hguX3Jyd339lo3NBrNN7bS9N3xaKlU6vt2lWr7f7Rev0tE7XaNSN1IDEAADAmwpCpYJExSrxtKB6Gu9hf2VLE79Pux0N+YevE3CXtzYcfX6vdcPbg47Hubb/gxgcXydxz8qR6bZ6Wfzc4j+Z4nnTuydLyr6aTzuWns2Cp13f96eTk7vuS5Pr7JiffXk5M7PrQ5OTO37rkkt1TzeYbHzH4jwMAAKw/YehUsMjYJa5miWeR9FezxK0zjeX9WVK+I6tXP9pKD3zb6SgdTpdYGOW1W8/LGwfSIu3+ZPi8fyBLq4Us7fxVVi+v2FHrDb1QigXL5ORbXjA5ueuaycndd09O7v238PXna7Vdl05M7HnGpZfufvjgPwoAALA+hWFTwSJjnc84BDfmo+3m8u/mje5VW5Puc2YuXjh38FEZCXmtc9500imypPvLedJ57XR9IbnmNJRJmzdf95A03X1RrbbrNSG/PzGx84drtd3fNPhrAACA9S8MmAoWGfPEbUNxFUtM3D508O4sqW7J0sXX55PVdxcT3WdcduG+hw0+MuteXus9NEsWn5zVl55VTC09dceO3oMGfzU0sWBJkuvOn5jYfVGjsecZF1+8c6SKKwAAAAWLyCBFutDfNhRXs8RVLXlSzWdJ+ddZWv361snOi7Y+7+ZHDj42IyFug9p+Qe/Bg2+HasuWa77iec+77pHN5vXOWQEAAEZTGCwVLCKfk/7Vzs1D/cIlS7ud8NrbWsn8j2RJp771ktueOPj4AAAAwKowOCpYRE7I6rah1ZuGFuLWoWNZWi6FvHe6Pv+KKzeWT9uy5aZzBh8jAAAAxl0YJhUsIp833V67sdybnTo6OAh34e48XfzHLC1f30q6W7Jk35MHHyUAAADGWRgiFSwi9yvd3kxzpbdt6kj8/miedN/dbhz88aLeSbbWFp9yus4zAQAAYA0Kg6KCReR+Jm4biiVLEbcONRaPzTQPdvKkfF+rvvBj05Od51+58fbHDD5aAAAAjJMwNCpYRL7ExM/M7NSR3vbN9/T/nCXdj2RJ9abptPMDl6cHvi18tM5a/YQBAAAwFsKwqGAReUDp9or+GS1xNctSL0ure7Kk+miWdn49qx94yfRU9fStmxdH6mpnAAAAPo8wKCpYRL6MxM9Pu7nSv9K5SLr35Gm3zNLyw1mj+v0sqS7bXpv7qsHHDQAAgFEVBkQFi8gpSbc304iH4N7Rv3GoSLuH8nTh+iypXtVKy4tecvHHzx187AAAABg1YTBUsIicsnT7K1r6h+E24mG4C7280b0tvP4HedK9vLXxwDO3NJYftWND70GDjyAAAACjIAyFChaRIaTdWO7NTh3uly1FutgtGsv/lCXlG7NG1S4ah56xY8MOJQsAAMCoCIOggkVkiImfr9Ubh+6OB+Henafd92dp9xeKpPPil11y4KmDjyIAAADrWRgAFSwiQ03cNrTYX9HSbi738qS6J7y+kKWdd7WS8oeuTMtnz1y8cG6tdsPZg48lAAAA600Y9BQsIqcp/bNZmod6s83D4fvunXnS/Wh4/W2tZP7V0/Xq4gu29x48+GgCAACwnoThTsEictrT7a9mmW0e6c1MHQrfL9yWNarfazU7W65My6ftsJoFAABgfQnDnoJF5Awkfu7itqGZ5kr4uhRe6x7O0vKDebrwmpl06aK4bchtQwAAAOtEGPQULCJnODPNg+EzeEf/z0Vj6d/ajaWdWVLuKJLFZnvj/OMHH1cAAADWqjDQKVhE1kTiYbgLq2e0TB3tZWm3myfVm/OkfPnWZO45WzcvPnLwsQUAAGCtCYOdgkVkjaTon82y0pudOvypG4cO5Y3qX7K0/L1Wvfqu7bXDXzX46AIAALCWhKFOwSKyBhPPZYlFS1zRUqTdKk/K68PXX2ilnZdl9eobBh9hAAAA1oIwyClYRNZo4oqW+PmMZUuRLsTX7srT7gdbje6rw/ffntduffTgowwAAMCZFAY2BYvImk53dTVL83BvdupIPAT37iytbs2T6n+HFHmtc97g4wwAAMCZEgY4BYvIukm3NzN1qLdt6o54Psudebr4V3my8GtZvbxiurn0zZdduO9hg482AAAAp1MY2hQsIusoq9uGFvtbh4p06d48XbwrS6qPtNLur2TJ/Au3buo+cUetd/bgIw4AAMDpEAY2BYvIOkwsWeKWoas2Hev/OU+6t+dp9515Ur56a6O8cMuGa75i8DEHAABg2MKgpmARWedpN5dWbxtqdHt5Uv5bvNY5TzqzrfTARa300OMGH3cAAACGJQxnChaRdZ5Pbxtait/fVyTdo1la7csa5Vta9arVasx9ba12g21DAAAAwxKGMQWLyMik25tprvQPwd226Y5e0Vg+lCfVB/Kk+/OttGxs3XzzIwcffQAAAE6lMJQpWERGLt3+qpaZqcO9mebBeOPQfNFc/rMsrV4xPdl5/tZLuk/cfkHvwYP/GQAAAODLFYYxBYvIiCZuGYorWvqFS2P5cPi6P0vKvVmy+P3h67e80rXOAAAAp0YYwhQsIiObsv81ns8SP+PbN98d/3x3eO2DWdr5mSLpPmfHjt6DBv9zAAAAwAMVBi0Fi8hYJG4bWr3aOXx/PEvKG1qTB162ZUvPdc4AAABfrjBoKVhExibdTxUs9+RJ5/1b6+UVChYAAIBTIAxaChaRsUm8Zehg/POdWdJ5TyvpbFGwAAAAnAJh0FKwiIxNFCwAAABDEQYtBYvI2ETBAgAAMBRh0FKwiIxNFCwAAABDEQYtBYvI2ETBAgAAMBRh0FKwiIxNFCwAAABDEQYtBYvI2ETBAgAAMBRh0FKwiIxNFCwAAABDEQYtBYvI2ETBAgAAMBRh0FKwiIxNFCwAAABDEQYtBYvI2ETBAgAAMBRh0FKwiIxNFCwAAABDEQYtBYvI2ETBAgAAMBRh0FKwiIxNFCwAAABDEQYtBYvI2ETBAgAAMBRh0FKwiIxNFCwAAABDEQYtBYvI2ETBAgAAMBRh0FKwiIxNFCwAAABDEQYtBYvI2ETBAgAAMBRh0FKwiIxNFCwAAABDEQYtBYvI2ETBAgAAMBRh0FKwiIxNFCwAAABDEQYtBYvI2ETBAgAAMBRh0FKwiIxNFCwAAABDEQYtBYvI2ETBAgAAMBRh0FKwiIxNFCwAAABDEQYtBYvI2ETBAgAAMBRh0FKwiIxNFCwAAABDEQYtBYvI2ETBAgAAMBRh0FKwiIxNFCwAAABDEQYtBYvI2ETBAgAAMBRh0FKwiIxNFCwAAABDEQYtBYvI2ETBAgAAMBRh0FKwiIxNFCwAAABDEQYtBYvI2ETBAgAAMBRh0FKwiIxNFCwAAABDEQYtBYvI2ETBAgAAMBRh0FKwiIxNFCwAAABDEQYtBYvI2ETBAgAAMBRh0FKwiIxNFCwAAABDEQYtBYvI2ETBAgAAMBRh0FKwiIxNFCwAAABDEQYtBYvI2ETBAgAAMBRh0FKwiIxNFCwAAABDEQYtBYvI2ETBAgAAMBRh0FKwiIxNFCwAAABDEQYtBYvI2ETBAgAAMBRh0FKwiIxNFCwAAABDEQYtBYvI2ETBAgAAMBRh0FKwiIxNFCwAAABDEQYtBYvI2ETBAgAAMBRh0FKwiIxNFCwAAABDEQYtBYvI2ETBAgAAMBRh0FKwiIxNFCwAAABDEQYtBYvI2ETBAgAAMBRh0FKwiIxNFCwAAABDEQYtBYvI2ETBAgAAMBRh0FKwiIxNFCwAAABDEQYtBYvI2ETBAgAAMBRh0FKwiIxNFCwAAABDEQYtBYvI2ETBAgAAMBRh0FKwiIxNFCwAAABDEQYtBYvI2ETBAgAAMBRh0FKwiIxNFCwAAABDEQYtBYvI2ETBAgAAMBRh0FKwiIxNFCwAAABDEQYtBYvI2ETBAgAAMBRh0FKwiIxNFCwAAABDEQYtBYvI2ETBAgAAMBRh0FKwiIxNFCwAAABDEQYtBYvI2ETBAgAAMBRh0FKwiIxNFCwAAABDEQYtBYvI2ETBAgAAMBRh0FKwiIxNFCwAAABDEQYtBYvI2ETBAgAAMBRh0FKwiIxNFCwAAABDEQYtBYvI2ETBAgAAMBRh0FKwiIxNFCwAAABDEQYtBYvI2ETBAgAAMBRh0FKwiIxNFCwAAABDEQYtBYvI2ETBAgAAMBRh0FKwiIxNFCwAAABDEQYtBYvI2ETBAgAAMBRh0FKwiIxNFCwAAABDEQYtBYvI2ETBAgAAMBRh0FKwiIxNFCwAAABDEQYtBYvI2ETBAgAAMBRh0FKwiIxNFCwAAABDEQYtBYvI2ETBAgAAMBRh0FKwiIxNFCwAAABDEQYtBYvI2ETBAgAAMBRh0FKwiIxNFCwAAABDEQYtBYvI2ETBAgAAMBRh0FKwiIxNFCwAAABDEQYtBYvI2ETBAgAAMBRh0FKwiIxNFCwAAABDEQYtBYvI2ETBAgAAMBRh0FKwiIxNFCwAAABDEQYtBYvI2ETBAgAAMBRh0FKwiIxNFCwAAABDEQYtBYvI2ETBAgAAMBRh0FKwiIxNFCwAAABDEQYtBYvI2ETBAgAAMBRh0FKwiIxNFCwAAABDEQYtBYvI2ETBAgAAMBRh0FKwiIxNFCwAAABDEQYtBYvI2ETBAgAAMBRh0FKwiIxNFCwAAABDEQYtBYvI2ETBAgAAMBRh0FKwiIxNFCwAAABDEQYtBYvI2ETBAgAAMBRh0FKwiIxNFCwAAABDEQYtBYvI2ETBAgAAMBRh0FKwiIxNFCwAAABDEQYtBYvI2ETBAgAAMBRh0FKwiIxNFCwAAABDEQYtBYvI2ETBAgAAMBRh0FKwiIxNFCwAAABDEQYtBYvI2ETBAgAAMBRh0FKwiIxNFCwAAABDEQYtBYvI2ETBAgAAMBRh0FKwiIxNFCwAAABDEQYtBYvI2ETBAgAAMBRh0FKwiIxNFCwAAABDEQYtBYvI2ETBAgAAMBRh0FKwiIxNFCwAAABDEQYtBYvI2ETBAgAAMBRh0FKwiIxNFCwAAABDEQYtBYvI2ETBAgAAMBRh0FKwiIxNFCwAAABDEQYtBYvI2ETBAgAAMBRh0FKwiIxNFCwAAABDEQYtBYvI2ETBAgAAMBRh0FKwiIxNFCwAAABDEQYtBYvI2ETBAgAAMBRh0FKwiIxNFCwAAABDEQYtBYvI2ETBAgAAMBRh0FKwiIxNFCwAAABDEQYtBYvI2ETBAgAAMBRh0FKwiIxNFCwAAABDEQat1xSNRQWLyFhEwQIAADAURVr9TLu51Nu26djnDGIiMnpRsAAAAAxFkVQ/O9M81PveF97XazeX+wPYiUOZiIxGFCwAAABDkderq7OknCsay/fGrUJFYylkoT+InTicicj6joIFAABgKLKk/JZW2rk6S7pvCcPX3EzjUG/b1B29diOuZokDWTn4KiLrPwoWAACAodmy5aZzWmnZyJPOf8/q1QeKdKETBrD7ZqeOhGHsUK+wmkVkRKJgAQAAGKrLLtz3sLzWOa9IOi/O085vZEn5sTiQzcaCpbHQK1LbhkTWfxQsAAAAp8X2C258cCs98G150pktkvINRWP5o3G7ULzGeaZ5eFC0nGxwE5G1HwULAADAabet2fn6Vr3z42EI+9s8qaoiXTwey5Z2c6UXD8Q9cXgTkbUdBQsAAMAZsbW2/ylZvZrKk85ri6T7t3lSHo8DWrzS2dksIustChYAAIAzqmh0n5HXOkWWlq8Pw9kHw6B2ZLZ5pDc7dbR/tfPq8ObGIZG1HQULAADAGbf9gt6DsxctPrnd6LSLevW2PKluL9LFO+O5LHHbULtftFjVIrJ2o2ABAABYM9qb5x+fT1YvyJLyB/N+0VIuxpUs2+JqFofgiqzhKFgAAADWnNmpfY/NJ/e/KK/P/2Ic1tqN5fk4vMWypd0f4qxmEVlbUbAAAACsSVdvvvkhV248+JitE3OX5En3DVlS7gtD3PF4Lku8aagfRYvIGomCBQAAYI3rnbU1mXtOllavKNLyjXmycEu80nl1NctKf7A7cdgTkdMbBQsAAMC6EIa1c9qNamOWVj+TJ53r40G4eaP7yZnmoTDYHeqvaDlx6BOR0xMFCwAAwLoRtw3NJuUT8kZ5Yb9oSat/CF+PFemntg3Fg3CtaBE5/VGwAAAArEsz9QPfmCXz01m9fH0Y7v4uS6u7r9p0vL91yNksIqc7ChYAAIB1rHdWK+0+s5WUL59OO2/N0/I/2o3lozPNlf6w124s9Qe/E4dBETm1UbAAAACse+3N84/P6p1n5UlV5Oni27OkvKvdWOkfgmvbkMjpiIIFAABgZEw3O4/I6uVLWvXOb+RJ9Zdh6FuebR4Z3Di03B8CTxwMReTLj4IFAABgpOzYsONBl198+5PypHN5npR/nCXlx7O0OhxXsvRXtTSWekUaV7WcbEgUkQcWBQsAAMBIunLj7Y+Zrlf/OauXV+RJ94/itc7txnIYAl3pLHLqo2ABAAAYaVu2XPMVWb07kaflT2VJtTdPup+Iq1mu2nSsNzt1uD8YnjgsisiXFgULAADAyNtR6509O7XvsVmyv54l5S9kaecfw0B4pGgs3Ru3DPW3DfUPwz3Z4CgiXzwKFgAAgLGx5fxrzmlN3PqfppMDLy7q1c/l6cKH4+G326aODoZDq1lEHlgULAAAAGNpW23xKVlS/mDI2/OkujkMiHfNNg+HIfFQf0XLiQOkiHz+KFgAAADGVl5beXSRzn97GAhflSXVDVlSHgwD4n2rW4YWB7cNWdUi8sWjYAEAABh7083O17fS7qVZUu4IA+J7Qw7HbUOzzSNuHBK5X1GwAAAAMNBKDz2uSMsrB9c6fzQMjctxNcvs1JFeu7nSHyJPHCxFRMECAADAZ9neWH7U1mT+/NbkfJ4l1ZvytDMfy5U4PMabhop+yaJoEfnsKFgAAAA4iX7RknYm86T8oSJd/PMiXTgQV7Js23RHGCStZhH57ChYAAAA+AJ2bOg9qEgXvr1Vr35jsG1oKU8X7o0lS7ux3F/VcuKwKTJuUbAAAADwRdRqvbNbafeZWb37PUXa/R9hmPzXuFWoHQbKdjNe6Ww1i4x7FCwAAADcT3FgnE06z8uS8gdXz2epPlak1T3bpu7ozTYPu3FIxjgKFgAAAL4EccvQ1Zvve8h0s/PNRdr5iTwp/zJPugthwLy7aCz1bxtStMj4RcECAADAA5Rv6pyXJfMvDAPlz2Zp9b4sKY9v23SsN9s81B84TxxCRUY1ChYAAAC+THmtc16rUbVaaed38nTpg3m6eDjeOBTTbi73h88TB1KRUYqCBQAAgFNgutl5xJbarV+TT1bfnSXVziwpl4tG95Nx29Bq4m1DihYZ1ShYAAAAOIVecvHHz82S/fUsKf9bkZZ7w+C5MNuMq1kOD1aznGw4FVnvUbAAAAAwBJdduO+xRVq+NEvK1+X16gN5UlVxFUvcNjQTD8JN44qWkw2qIusxChYAAACGZEut+spttcWn5JOdF4Wh83/mSfnvIfe1+1uGFm0bkhGKggUAAIAhq9V6Z7cnO8/Pk+q/Zkn1p2EI/dd4Lsv2zXf3ZqYO94fTzx5WRdZbFCwAAACcJnnt1ofOJovPayUHfjpL59/bThf35eniXe3myuq2ocbi5wytIuslChYAAABOo+0X9B78sksOPHW6uf/57XTxlWEg/as8KY/H4TQeglv0V7NY0SLrLQoWAAAAzpCtl9z2xKw+d0WRdP5X0aj+KU+6d22buuMzbhxStMh6iYIFAACAM2jLlmu+Iq/NfVNe71yd18s9WVLuL8KQGg/A/dRhuIoWWftRsAAAALAGzDRuf9J0PAg37fxAnpR78qSai4NrXMnSdjaLrPkoWAAAAFhDZqf2PTZP5r4zT8qfz+vVu8PXanbqUO+qTccGA6zVLLIWo2ABAABgjQmD6TlZsu/JWVL+lywtfy/k5qKxdEfRWLgvXu8ctw2tHoZ7skFX5ExEwQIAAMAatb2x/KhWY/650+nc1qKx+PosrW5uN5Z7s1NHe/Fq5xOHXJEzFQULAAAA60CRls/OkvK/xeE1Txf2h9w3O3WkP9TGVS22DsmZjYIFAACAdSDeNtRKDz2uXSsbRVr9apaUH87S6liRfuq2oQXbhuQMRsECAADAOrKjdsPZWbL/W/Kkc3nRKH+zSKsbw3B7JA63q6tZ3DgkZyIKFgAAANapbemBZ+b1ztVhqP2zLCk/liXVHfHGobh1KK5qsW1ITl8ULAAAAKxfZ7U3zz8+n1q4oJXM/VCelNdnaXV4dupwr91c7m8bUrLI6YmCBQAAgBHwsql/f+p0MvedrbR6TTtdfHveWFiIRcvqjUPLnzMMi5zqKFgAAAAYIdPNziPy2vzmLC1/Lwy6/5ani4fbjcX+8Ns/DDeNq1pONiCLfDlRsAAAADBiYskSr3WeTue3h8H3L4qk22k3V/5fyWLbkJz6KFgAAAAYUdsbtzyqNVltyurdn2ylnevypLq9SKp7ZpqHerFwWT2jpfyMIVnkgUbBAgAAwAir1W44e/sFcw+fSTr1MPj+WsjfZEm3myXVvTPNlc84DPdkQ7PI/Y2CBQAAgDFw9eabH7I1mT8/n5z/7rze+Y0sqT5aNJZ6V206Hgbjlf6AfOLQLHJ/o2ABAABgjGzZ0PuKvFZ963Q6/8osrf683Vj55yLt3rl649DhXtFY/JzBWeT+RMECAADAmImD75bGLY+anaqenqcL2/Ok8+4sLVeKdPHe/k1DjcXBtiGrWuT+RsECAADAGLs8KZ/Qqs9/R5aUv1CkC3+dpd1j26bu6K9mceOQ3P8oWAAAAGBDXuuclyed2aze/aM8KT9aNLorxWBobjfiQbiKFvlCUbAAAABA35Ubb39MOy2fVjTn8zAovzlPuv+eJeXdcctQuxm3Dtk2JJ8vChYAAAD4LK940e2PyRtlmtWrHw25NkvK+dmpo73tm4/32g03DsnJomABAACAk5q9cN9js6T7wiyZ/80sKf+h3VwpwyB9b3/bUHOlV6RxRcvJhm0ZvyhYAAAA4PPaUqu+crq27+nFxFyznS7+Yp5UH4sD9UzzkENw5TOiYAEAAID7pZ3Mn99KO1cXaXlNkS7+e0hv29SdvZmpQ/2rnU8cumV8omABAACA++3SS298eFE/cHGedF6bJ+X7s6RayBvdu2PZEle0OAh3XKNgAQAAgC/J9gtufHBWr76hqHeSIun8bJF2/zpLypWisdSbiVc6O5tlDKNgAQAAgAcsXuucJ1URBuo3hOH678KgfWTb1B29bZvuHJzRcrJhXEYvChYAAAD4slx6wdzDt9YPfGNeL6/K086uLC077cbKXXElS1zVsno+i21Dox0FCwAAAJwSWy+57Yl52pmcTjr/tUgX35wn5UK8bWh26miv7RDcEY+CBQAAAE6peEZL3ijTLClfF/L37cbiYrux3JudOtJrN1cGB+GebEiX9RsFCwAAAJxyee3Wh87U57+uSDsvK5LuH2dJdWueVPfE7UKrcdvQaEXBAgAAAEOzdfPNj8wnqxdkk+X3Zkn1p2EAvzlLu3fPNg/1ZhorvaJfspSfMajL+oyCBQAAAE6Hs6anDlycp53XZEn19jypbgtD+Sdnm4d7s1OHBwfhnmxwl/URBQsAAACcFlu23HTO1tr+pxT1hSSrd34uS8t/jNuG4tks/W1DqW1D6zcKFgAAADiteht6Z21N5s9vpfN5q179Rjtd+essrY5tmzraPwjXapb1GAULAAAAnCG9sy5PyicUk1We1cvdeVLubzeWjsUbh2b6tw0tDc5oOdlAL2srChYAAAA4o66ozX1VPjn3giKpXpUn3ffmaXkkDuurJUtczaJkWftRsAAAAMCaUEwtPTWrl1fkSee/F2nnr8PQvpCnC2FwP9xrN5f7Q7wbh9ZqFCwAAACwZoSh/Jz25vnHF2nnZXlS/lEY2P85S8rDRWOh126shCz1h/nPHu7lzEfBAgAAAGtOXlt5dDEx/+150pnN6p0/DYP7gXgA7lWbjvXPZvns4V7OfBQsAAAAsGbNXLxwblHfnxRJ9bNZUr5jprF8Sxji74tly0zzUC+ubPnsQV/OTBQsAAAAsKZt3nzzQ2anDj62VZt/bl6vXpOl5YdDjsXtQv2bhhqLvSKNRYutQ2cuChYAAABYN1obDzyznZTTWdr5X0W6eFMsVrZN3dEf7ldvHDrZ8C/Dj4IFAAAA1pUdG3oPKpLuc8Ig/6o8qXaF3JKnC3fE1SxxyHcQ7pmIggUAAADWnR213tnTzc5X583qW/O082N5Ur07S8pOnpb3tZuf2jakZDl9UbAAAADAupZvuvW8LCn/S1avfi5PyveFYf/IVZvuGtw4ZNvQ6YmCBQAAAEZCq7H8tVl9fxYG/DdlafmvM43llXjL0Oq2oeV+CXBiMSCnJgoWAAAAGBmt9MDjsnrnWUUY8It04Q+ztOzEM1lWr3SOq1mULMOJggUAAABGzupBuHOXZGnnZ8LQ/64iXerMNA66cWhoUbAAAADASNqxYceDrqjNfVWRdF5c1Lv/I0uqj+RpeShPq3vjjUNxZUvcQvTZRYE8sChYAAAAYKTNXLxwbjFRPjtP5787T8s35Gn10SypjrWbK71209kspyYKFgAAABgbM4355+ZJ+UNZPAg3KT+ep917tm061ts2ddRqli8rChYAAAAYG3Ho39K45VHTk53n50n56iwp/zp8PdRuLn8yFizxbBZFywOJggUAAADGTjwEN6tX35Al8y9sJfOvbqeL78nS6tjs1JHebPNwr0iVLF9aFCwAAAAw1i6b2vfYol5emSXVm/Kk/FiRLh2NZUEsWuIZLYUzWu5HFCwAAAAw9voH4abls1v1ztV5Wl2XJ9VCLA7agy1DqytaFC2fPwoWAAAAYGCmsfCkuG0oSzs/kaed64q0ml8tD1ZXs6yWLOWgVJBPR8ECAAAAfI6Zlyyc20rnXlok5euypHx/llTdeABuPKMlFgnOaPncKFgAAACAk5i5+OPnFhP7n5El85dlSed/5Wn1iaKx1JudOjy4aciWoU9HwQIAAAB8AdPNDz+ilZYXZY3q+/Ok/KN2Y/mmePDttk139LcOOQQ3RsECAAAA3A87dvQelNfmvilvVD+eJeVf50m5WDSWPtluLPdi4hai8V3VomABAAAAvgStxtzX5mnnRVna+dUi6X4oS8p7Z5qHVq907m8dOlkBMepRsAAAAAAPQLzWOavPvyJLu3+Yp90P543ukbiSpV+2NJYGxcO43DikYAEAAAAegN6G3lmXXbjvYbNT1dPztHN13qh2ZvXqliyp7mo3lwYrWsZl25CCBQAAAPgyZcm+J+e1zmRWr360lZTvyNPy8LZNd/ZmN90xJtuGFCwAAADAKbL1ktueGMuFVjr/W1lS/k3RWCrjdqHZqSO9meZKv4g4sZwYhShYAAAAgFNo+6VzD788KZ/QmpzblKfV72RpeVuelPd86qah1RUto1a0KFgAAACAIajVbjh7pjH/3Dzt/kCedN5apAsHYgkxO3W0v5olfP85JcV6joIFAAAAGKLvq1VfmdXnprLJ8pfztPzLPKnm8rR79+qNQyuDg3BPVlqspyhYAAAAgCF75YX3PWxrbf9TinonydPOr2RJ+fchB4tGtxdvHFr/24YULAAAAMBplCX7vyWrz2dZvXx9lpYfytPuvds3He9vHVq/Nw4pWAAAAIDTbPsFvQfHoqWVzP9InpbXFUn39iJduiPeONRel9uGFCwAAADAGbBlyzVfcXlj4Umt2vxz82Th5XlaXZcn1dFYVMQU/S1D62XbkIIFAAAAOMO2N5YflSfld+b18rfytPq7Il08PDt1pBfTbi4PypaTFRtrJQoWAAAAYA2I1zpPX9L5+iLtzuRp+RdZUt6apd074kG4RSMehLu4hosWBQsAAACwhkw3O1+dJZ3n5fXyqiwtr8nT6rYsqe6NVzrHM1o+u9hYK1GwAAAAAGvQZRfue1jRmNuU16vXZEm1N0/L/XG70FWbjvVmmofW2GoWBQsAAACwRm3Z0jvn5Rcd+epWo9qUJeXrsrT8l6KxeGeRLt7X3zLU3za0Fq52VrAAAAAAa9yll849fLq+/z9vrR/4nizt/mqeLnw4rmDZNnV0UGyc6dUsChYAAABgHZmu7Xt6Vi9fmSWdd+RJdXuRLnxytnm4X3CsntFyJsoWBQsAAACwvpzVSg88rkjmLsmTzmvzpPvBLOnekacL/YKlaCycgfNZFCwAAADAOpXX5r4pq3e+J0/LX8mT6gMhB9uN5V48BPf03jikYAEAAADWuW2bF5/SasxdlSfdPw75cJaWh+O1zrNTR3qxcBn+tiEFCwAAADACrqjNfdWVtepb87TcnqfV27K0XPrU2Sxx29BwSxYFCwAAADBCppv/8dVZMv/CPClfXTQWry3S7oFYfmzbdEev3VzplyEnFiRfbhQsAAAAwMjpnZXXbn1oqzG3MU87v5Gn1UeLtHuoaCz2S5ZPHYb72SXJlxMFCwAAADCitpx/0znxINx2Uk7nSflHWVLdFsuVWIa0m8un8LYhBQsAAAAw4uJqlqw+P5El1avyevW2PO3+e5F2j8dSJCaubDmxNPlSomABAAAAxkCtdsPZ083OI9qTnefnjc5ri6S6IUvLTp6U98TVLPG2oQe+bUjBAgAAAIyV3lmt9MAzi6Tz4iwpfyFLOn+fp+V9V2063ptpHu6XJScWKF8sChYAAABgTMXzWVqN+ZfnaedP2o2lf8rTxcMzzUO92anD/YNwTyxSPl8ULAAAAMCY2rGh96AtjVseldc6581MLmxtpZ1deVIt5o3ufatbhhYH24a+2KoWBQsAAABAPAj30XmjTPO0ek2edt+bJ91Ds1N39LZNHenfOPSFSxYFCwAAAMD/s3VT94mtdO7KvN753TytbiySqirS7j0zzZUvcBCuggUAAADgs2xv3PKo6Us6X99Ky5fmSee387T7kTwpj8ctQ+3mUq9IP3fbkIIFAAAA4KR21HpnFxP7vr2VVt+XpeWfZ0n1iZmpg73tm+/uzUwdHhQtChYAAACAL2rm4oVzs2R/vZXO/2KeVB8oGsvzebpwV7xpqN1c6R+Gq2ABAAAA+CIuu3Dfw9pp+bRsolNvN5Z/PE8X3hcLlZnm4V48nyVe75yl5TEFCwAAAMD9sK22/ylZo7yiSLt/kDcW/qVIF+753s339g/AbSXlX26td75HwQIAAADwRWy/4MYH583qW/N658fzpHpvniwsZUl5MOS9rckDL1OwAAAAANwPvQ29s/Laree1JudrWVL+tyzpXBPyxiyZvywWMIP/GAAAAAD3x+VJ+YQs2f/CPDlweV6fv8AKFgAAAIAH4OrNNz9kutl5xObwNXx71uqrAAAAAAAAAAAAAAAAAAAAAAAAAAAAAAAAAAAAAAAAAAAAAAAAAAAAAAAAAAAAAAAAAAAAAAAAAAAAAAAAAAAAAAAAAAAAAAAAAAAAAAAAAAAAAAAAAAAAAAAAAAAAAAAAAAAAAAAAAAAAAAAAAAAAAAAAAAAAAAAAAAAAAAAAAAAAAAAAAAAAAAAAAAAAAAAAAAAAAAAAAAAAAAAAAAAAAAAAAAAAAAAAAAAAAAAAAAAAAAAAAAAAAAAAAAAAAAAAAAAAAAAAAAAAAAAAAAAAAAAAAAAAAAAAAAAAAAAAAAAAAAAAAAAAAAAAAAAAAAAAAAAAAAAAAAAAAAAAAAAAAAAAAAAAAAAAAAAAAAAAAAAAAAAAAAAAAAAAAAAAAAAAAAAAAAAAAAAAAAAAAAAAAAAAAAAAAAAAAAAAAAAAAAAAAAAAAAAAAAAAAAAAAAAAAAAAAAAAAAAAAAAAAAAAAAAAAAAAAAAAAAAAAAAAAAAAAAAAAAAAAAAAAAAAAAAAAAAAAAAAAAAAwMjYsOH/AjjSIQpwh+ESAAAAAElFTkSuQmCC;" vertex="1" parent="1">
          <mxGeometry x="576.05" y="180" width="59.95" height="60" as="geometry" />
        </mxCell>
        <mxCell id="H9gFOr3YN2ZNxRey7TpE-36" value="Github&#xa;Repository Mgmt" style="shape=image;verticalLabelPosition=bottom;labelBackgroundColor=default;verticalAlign=top;aspect=fixed;imageAspect=0;image=https://github.githubassets.com/images/modules/logos_page/GitHub-Mark.png;" vertex="1" parent="1">
          <mxGeometry x="464.36" y="292.86" width="60" height="60" as="geometry" />
        </mxCell>
        <mxCell id="H9gFOr3YN2ZNxRey7TpE-38" value="App Insights&#xa;Monitoring" style="shape=image;verticalLabelPosition=bottom;labelBackgroundColor=default;verticalAlign=top;aspect=fixed;imageAspect=0;image=https://symbols.getvecta.com/stencil_28/8_application-insights.e5d256458d.png;" vertex="1" parent="1">
          <mxGeometry x="580" y="296.86" width="56" height="56" as="geometry" />
        </mxCell>
      </root>
    </mxGraphModel>
  </diagram>
</mxfile>
